<svg xmlns="http://www.w3.org/2000/svg" version="1.1" xmlns:xlink="http://www.w3.org/1999/xlink" xmlns:svgjs="http://svgjs.com/svgjs" width="400" height="400"><svg id="SvgjsSvg1002" version="1.1" xmlns="http://www.w3.org/2000/svg" xmlns:xlink="http://www.w3.org/1999/xlink" width="400" height="400" viewBox="0, 0, 400,400"><g id="SvgjsG1001"><path id="SvgjsPath1000" d="M193.750 0.586 C 193.750 0.908,193.663 1.172,193.557 1.172 C 193.451 1.172,193.308 1.523,193.239 1.953 C 193.170 2.383,193.037 2.734,192.944 2.734 C 192.850 2.734,192.773 2.998,192.773 3.320 C 192.773 3.711,192.676 3.906,192.480 3.906 C 192.288 3.906,192.188 4.099,192.188 4.471 C 192.188 4.793,192.062 5.085,191.895 5.149 C 191.710 5.220,191.602 5.519,191.602 5.957 C 191.602 6.395,191.493 6.694,191.309 6.765 C 191.147 6.827,191.016 7.077,191.016 7.321 C 191.016 7.565,190.884 7.874,190.723 8.008 C 190.562 8.142,190.430 8.378,190.430 8.534 C 190.430 8.690,190.298 8.949,190.137 9.110 C 189.976 9.271,189.844 9.653,189.844 9.959 C 189.844 10.264,189.742 10.548,189.617 10.590 C 189.493 10.631,189.361 10.865,189.323 11.109 C 189.286 11.354,189.124 11.685,188.964 11.845 C 188.803 12.006,188.672 12.302,188.672 12.502 C 188.672 12.703,188.584 12.922,188.477 12.988 C 188.369 13.055,188.281 13.411,188.281 13.781 C 188.281 14.248,188.192 14.453,187.988 14.453 C 187.812 14.453,187.695 14.633,187.695 14.904 C 187.695 15.152,187.566 15.526,187.409 15.734 C 187.251 15.943,187.119 16.258,187.116 16.434 C 187.112 16.611,186.978 16.806,186.816 16.868 C 186.633 16.938,186.523 17.237,186.523 17.670 C 186.523 18.049,186.443 18.359,186.344 18.359 C 186.245 18.359,186.106 18.622,186.036 18.943 C 185.965 19.264,185.826 19.577,185.727 19.638 C 185.628 19.699,185.547 19.889,185.547 20.058 C 185.547 20.228,185.413 20.465,185.250 20.584 C 185.086 20.704,184.933 21.078,184.908 21.417 C 184.883 21.755,184.811 22.000,184.746 21.960 C 184.552 21.841,184.123 22.798,184.267 23.030 C 184.340 23.148,184.262 23.298,184.094 23.362 C 183.926 23.427,183.789 23.639,183.789 23.835 C 183.789 24.031,183.679 24.307,183.545 24.449 C 183.411 24.591,183.270 24.883,183.233 25.098 C 183.196 25.313,183.042 25.559,182.892 25.644 C 182.741 25.730,182.617 26.049,182.617 26.353 C 182.617 26.657,182.485 27.015,182.324 27.148 C 182.163 27.282,182.031 27.593,182.031 27.840 C 182.031 28.086,181.930 28.322,181.806 28.363 C 181.682 28.404,181.566 28.638,181.548 28.883 C 181.530 29.128,181.420 29.387,181.303 29.460 C 181.186 29.532,181.060 29.854,181.023 30.176 C 180.987 30.498,180.869 30.747,180.762 30.729 C 180.654 30.711,180.553 30.926,180.536 31.207 C 180.519 31.487,180.365 31.819,180.194 31.944 C 180.023 32.070,179.883 32.439,179.883 32.764 C 179.883 33.121,179.762 33.403,179.577 33.474 C 179.410 33.538,179.317 33.663,179.371 33.751 C 179.425 33.839,179.300 34.169,179.092 34.485 C 178.884 34.800,178.713 35.203,178.712 35.379 C 178.712 35.556,178.572 35.754,178.402 35.819 C 178.232 35.884,178.132 36.048,178.181 36.182 C 178.230 36.316,178.142 36.572,177.987 36.750 C 177.832 36.929,177.686 37.201,177.664 37.356 C 177.641 37.510,177.472 37.866,177.288 38.147 C 177.104 38.428,176.953 38.837,176.953 39.056 C 176.953 39.274,176.871 39.453,176.770 39.453 C 176.670 39.453,176.560 39.739,176.526 40.088 C 176.489 40.468,176.367 40.703,176.221 40.674 C 176.069 40.643,175.977 40.846,175.977 41.211 C 175.977 41.602,175.879 41.797,175.684 41.797 C 175.522 41.797,175.401 41.863,175.414 41.943 C 175.499 42.482,175.349 42.969,175.098 42.969 C 174.917 42.969,174.805 43.152,174.805 43.446 C 174.805 43.708,174.717 43.977,174.609 44.043 C 174.502 44.109,174.414 44.369,174.414 44.620 C 174.414 44.870,174.282 45.126,174.121 45.188 C 173.960 45.250,173.828 45.513,173.828 45.774 C 173.828 46.034,173.696 46.298,173.535 46.360 C 173.374 46.422,173.242 46.659,173.242 46.887 C 173.242 47.115,173.066 47.525,172.852 47.798 C 172.637 48.071,172.461 48.459,172.461 48.659 C 172.461 48.860,172.373 49.023,172.266 49.023 C 172.158 49.023,172.081 49.089,172.093 49.170 C 172.174 49.677,172.034 50.188,171.826 50.146 C 171.688 50.119,171.555 50.335,171.519 50.646 C 171.485 50.948,171.331 51.243,171.177 51.302 C 171.024 51.361,170.898 51.610,170.898 51.855 C 170.898 52.101,170.767 52.353,170.605 52.414 C 170.444 52.476,170.313 52.749,170.313 53.021 C 170.313 53.293,170.225 53.516,170.117 53.516 C 170.010 53.516,169.922 53.685,169.922 53.892 C 169.922 54.099,169.790 54.401,169.629 54.562 C 169.468 54.723,169.336 55.028,169.336 55.239 C 169.336 55.450,169.204 55.673,169.043 55.735 C 168.882 55.797,168.750 56.060,168.750 56.321 C 168.750 56.581,168.618 56.845,168.457 56.907 C 168.296 56.968,168.164 57.190,168.164 57.399 C 168.164 57.609,168.068 57.812,167.951 57.851 C 167.833 57.890,167.724 58.160,167.707 58.451 C 167.690 58.742,167.566 59.022,167.432 59.074 C 167.297 59.125,167.188 59.390,167.188 59.662 C 167.188 59.971,167.078 60.156,166.895 60.156 C 166.733 60.156,166.591 60.288,166.577 60.449 C 166.526 61.069,166.498 61.151,166.294 61.286 C 166.046 61.452,164.844 63.892,164.844 64.231 C 164.844 64.360,164.712 64.516,164.551 64.578 C 164.384 64.642,164.258 64.933,164.258 65.255 C 164.258 65.627,164.158 65.820,163.965 65.820 C 163.799 65.820,163.672 65.995,163.672 66.225 C 163.672 66.447,163.540 66.761,163.379 66.922 C 163.218 67.084,163.086 67.385,163.086 67.592 C 163.086 67.799,162.998 67.969,162.891 67.969 C 162.783 67.969,162.695 68.188,162.695 68.457 C 162.695 68.761,162.585 68.945,162.402 68.945 C 162.207 68.945,162.109 69.141,162.109 69.531 C 162.109 69.922,162.012 70.117,161.816 70.117 C 161.655 70.117,161.523 70.288,161.523 70.496 C 161.523 70.705,161.445 70.924,161.348 70.984 C 161.095 71.140,160.352 72.616,160.352 72.961 C 160.352 73.123,160.220 73.305,160.059 73.367 C 159.897 73.429,159.766 73.564,159.766 73.668 C 159.766 73.771,159.634 73.988,159.473 74.149 C 159.312 74.310,159.180 74.602,159.180 74.798 C 159.180 74.993,159.039 75.208,158.866 75.274 C 158.694 75.340,158.597 75.507,158.649 75.645 C 158.702 75.782,158.624 76.062,158.474 76.266 C 158.325 76.470,158.203 76.799,158.203 76.997 C 158.203 77.194,158.071 77.407,157.910 77.468 C 157.749 77.530,157.617 77.694,157.617 77.832 C 157.617 77.970,157.485 78.134,157.322 78.196 C 157.160 78.259,157.039 78.378,157.053 78.461 C 157.125 78.904,157.007 79.305,156.835 79.198 C 156.726 79.132,156.588 79.236,156.527 79.431 C 156.467 79.626,156.335 79.938,156.236 80.124 C 156.136 80.311,156.055 80.640,156.055 80.857 C 156.055 81.076,155.925 81.250,155.762 81.250 C 155.588 81.250,155.469 81.429,155.469 81.691 C 155.469 81.934,155.313 82.230,155.122 82.349 C 154.931 82.468,154.602 82.928,154.390 83.370 C 154.178 83.813,153.938 84.176,153.857 84.177 C 153.777 84.179,153.711 84.365,153.711 84.591 C 153.711 84.817,153.447 85.335,153.125 85.742 C 152.803 86.149,152.539 86.623,152.539 86.796 C 152.539 86.968,152.434 87.087,152.307 87.061 C 152.179 87.034,152.037 87.188,151.991 87.402 C 151.945 87.617,151.850 87.837,151.780 87.891 C 151.518 88.090,150.977 89.058,150.977 89.328 C 150.977 89.481,150.845 89.657,150.684 89.719 C 150.522 89.781,150.391 90.014,150.391 90.238 C 150.391 90.461,150.164 90.854,149.887 91.111 C 149.446 91.519,149.291 91.835,149.234 92.443 C 149.225 92.530,149.131 92.547,149.023 92.480 C 148.916 92.414,148.815 92.475,148.798 92.615 C 148.782 92.756,148.758 92.959,148.744 93.066 C 148.731 93.174,148.437 93.550,148.091 93.903 C 147.744 94.256,147.461 94.669,147.461 94.821 C 147.461 94.973,147.241 95.334,146.973 95.624 C 146.704 95.914,146.484 96.314,146.484 96.513 C 146.484 96.712,146.353 96.875,146.191 96.875 C 145.929 96.875,145.781 97.403,145.892 97.949 C 145.913 98.057,145.870 98.083,145.795 98.009 C 145.558 97.771,144.336 99.512,144.336 100.089 C 144.336 100.266,144.222 100.335,144.043 100.266 C 143.856 100.194,143.750 100.270,143.750 100.476 C 143.750 100.782,143.648 100.946,142.969 101.736 C 142.808 101.923,142.517 102.356,142.323 102.698 C 142.129 103.041,141.711 103.604,141.395 103.950 C 141.079 104.296,140.820 104.696,140.820 104.838 C 140.820 104.980,140.601 105.300,140.332 105.549 C 140.063 105.798,139.844 106.091,139.844 106.200 C 139.844 106.308,139.712 106.507,139.551 106.641 C 139.390 106.774,139.258 107.049,139.258 107.250 C 139.258 107.452,139.171 107.617,139.065 107.617 C 138.724 107.617,138.086 108.279,138.086 108.632 C 138.086 108.820,137.690 109.370,137.207 109.853 C 136.724 110.336,136.328 110.862,136.328 111.020 C 136.328 111.179,136.188 111.387,136.018 111.482 C 135.847 111.578,135.715 111.714,135.725 111.785 C 135.734 111.856,135.676 111.930,135.596 111.950 C 135.356 112.008,134.441 113.343,134.249 113.916 C 134.186 114.104,134.050 114.258,133.948 114.258 C 133.659 114.258,132.041 116.170,132.023 116.532 C 132.018 116.624,131.755 116.915,131.437 117.178 C 131.119 117.442,130.859 117.771,130.859 117.911 C 130.859 118.050,130.793 118.142,130.713 118.115 C 130.571 118.068,129.688 118.857,129.688 119.031 C 129.688 119.078,129.424 119.405,129.102 119.758 C 128.779 120.111,128.516 120.475,128.516 120.566 C 128.516 120.807,127.412 121.875,127.163 121.875 C 127.048 121.875,126.953 121.955,126.953 122.054 C 126.953 122.263,126.270 123.103,125.613 123.701 C 124.347 124.854,123.633 125.605,123.633 125.781 C 123.633 125.889,123.534 125.977,123.412 125.977 C 123.291 125.977,122.640 126.548,121.966 127.246 C 121.291 127.944,120.643 128.516,120.526 128.516 C 120.408 128.516,120.313 128.647,120.313 128.809 C 120.313 128.970,120.225 129.102,120.117 129.102 C 120.010 129.102,119.757 129.255,119.556 129.443 C 119.355 129.631,118.902 130.003,118.550 130.270 C 117.730 130.891,116.406 132.239,116.406 132.453 C 116.406 132.543,116.274 132.617,116.113 132.617 C 115.952 132.617,115.820 132.699,115.820 132.799 C 115.820 132.900,115.623 133.044,115.381 133.119 C 115.139 133.195,114.748 133.465,114.511 133.719 C 114.275 133.972,113.989 134.180,113.877 134.180 C 113.764 134.180,113.672 134.301,113.672 134.450 C 113.672 134.598,113.487 134.768,113.262 134.827 C 112.990 134.898,112.902 135.022,113.000 135.192 C 113.082 135.333,113.077 135.384,112.990 135.305 C 112.767 135.104,111.581 135.873,110.591 136.862 C 110.131 137.320,109.635 137.695,109.488 137.695 C 109.342 137.695,109.169 137.833,109.104 138.001 C 109.040 138.169,108.899 138.251,108.790 138.184 C 108.682 138.118,108.594 138.186,108.594 138.336 C 108.594 138.486,108.243 138.777,107.815 138.982 C 107.386 139.188,107.035 139.414,107.033 139.486 C 107.032 139.558,106.702 139.817,106.299 140.061 C 105.896 140.306,105.495 140.622,105.408 140.765 C 105.321 140.907,105.166 140.972,105.065 140.910 C 104.963 140.847,104.827 140.933,104.763 141.101 C 104.698 141.269,104.523 141.406,104.374 141.406 C 104.224 141.406,104.102 141.538,104.102 141.699 C 104.102 141.860,104.014 142.003,103.906 142.017 C 103.799 142.030,103.630 142.052,103.530 142.065 C 103.431 142.079,103.027 142.375,102.633 142.725 C 102.238 143.074,101.836 143.310,101.738 143.249 C 101.640 143.189,101.507 143.277,101.443 143.445 C 101.378 143.613,101.203 143.750,101.053 143.750 C 100.904 143.750,100.781 143.882,100.781 144.043 C 100.781 144.225,100.597 144.336,100.293 144.336 C 100.024 144.336,99.805 144.414,99.805 144.508 C 99.805 144.603,99.620 144.729,99.394 144.788 C 99.168 144.847,99.042 144.989,99.113 145.104 C 99.192 145.231,99.045 145.313,98.736 145.313 C 98.458 145.313,98.179 145.444,98.118 145.605 C 98.056 145.767,97.883 145.898,97.733 145.898 C 97.583 145.898,97.461 146.030,97.461 146.191 C 97.461 146.358,97.286 146.484,97.055 146.484 C 96.832 146.484,96.390 146.744,96.072 147.062 C 95.755 147.379,95.373 147.592,95.223 147.535 C 95.071 147.476,94.855 147.611,94.732 147.842 C 94.611 148.068,94.428 148.201,94.325 148.138 C 94.222 148.074,94.085 148.160,94.021 148.327 C 93.956 148.495,93.795 148.633,93.661 148.633 C 93.528 148.633,93.216 148.809,92.969 149.023 C 92.721 149.238,92.432 149.414,92.326 149.414 C 92.221 149.414,91.930 149.634,91.681 149.904 C 91.431 150.173,91.010 150.412,90.745 150.434 C 90.479 150.456,90.305 150.543,90.358 150.628 C 90.410 150.713,90.228 150.868,89.953 150.972 C 89.678 151.077,89.453 151.250,89.453 151.356 C 89.453 151.463,89.333 151.504,89.185 151.447 C 89.038 151.391,88.781 151.482,88.613 151.649 C 88.446 151.816,88.168 151.953,87.996 151.953 C 87.824 151.953,87.632 152.085,87.571 152.246 C 87.509 152.407,87.347 152.539,87.210 152.539 C 87.074 152.539,86.852 152.671,86.719 152.832 C 86.585 152.993,86.311 153.125,86.109 153.125 C 85.907 153.125,85.742 153.257,85.742 153.418 C 85.742 153.600,85.558 153.711,85.254 153.711 C 84.985 153.711,84.766 153.799,84.766 153.906 C 84.766 154.014,84.631 154.102,84.467 154.102 C 84.302 154.102,84.117 154.233,84.055 154.393 C 83.994 154.554,83.865 154.637,83.770 154.578 C 83.675 154.519,83.373 154.696,83.098 154.970 C 82.824 155.244,82.428 155.469,82.218 155.469 C 82.008 155.469,81.836 155.601,81.836 155.762 C 81.836 155.923,81.690 156.055,81.511 156.055 C 81.072 156.055,79.688 156.676,79.688 156.874 C 79.688 156.960,79.556 157.031,79.395 157.031 C 79.233 157.031,79.102 157.163,79.102 157.324 C 79.102 157.505,78.918 157.617,78.623 157.617 C 78.360 157.617,78.074 157.731,77.988 157.870 C 77.902 158.009,77.447 158.246,76.976 158.398 C 76.505 158.549,76.011 158.783,75.877 158.917 C 75.743 159.051,75.403 159.218,75.121 159.289 C 74.840 159.360,74.609 159.486,74.609 159.570 C 74.609 159.654,74.390 159.778,74.121 159.846 C 73.853 159.913,73.633 160.055,73.633 160.160 C 73.633 160.265,73.512 160.352,73.364 160.352 C 73.216 160.352,72.985 160.483,72.852 160.645 C 72.718 160.806,72.443 160.938,72.242 160.938 C 72.040 160.938,71.875 161.069,71.875 161.230 C 71.875 161.414,71.690 161.523,71.381 161.523 C 71.109 161.523,70.836 161.655,70.774 161.816 C 70.710 161.983,70.418 162.109,70.096 162.109 C 69.761 162.109,69.551 162.204,69.580 162.343 C 69.607 162.471,69.409 162.630,69.141 162.697 C 68.269 162.912,67.383 163.315,67.383 163.496 C 67.383 163.593,67.172 163.672,66.915 163.672 C 66.658 163.672,66.397 163.804,66.336 163.965 C 66.274 164.126,66.001 164.258,65.729 164.258 C 65.420 164.258,65.234 164.368,65.234 164.551 C 65.234 164.712,65.090 164.844,64.913 164.844 C 64.455 164.844,61.719 166.188,61.719 166.414 C 61.719 166.517,61.653 166.591,61.572 166.578 C 61.117 166.507,60.748 166.633,60.791 166.846 C 60.820 166.992,60.585 167.114,60.205 167.151 C 59.778 167.192,59.570 167.315,59.570 167.525 C 59.570 167.698,59.515 167.784,59.448 167.717 C 59.381 167.650,58.986 167.769,58.570 167.981 C 58.153 168.194,57.812 168.315,57.812 168.252 C 57.812 168.188,57.674 168.274,57.506 168.443 C 57.337 168.612,56.985 168.750,56.724 168.750 C 56.433 168.750,56.250 168.863,56.250 169.043 C 56.250 169.221,56.068 169.336,55.786 169.336 C 55.530 169.336,55.212 169.468,55.078 169.629 C 54.944 169.790,54.670 169.922,54.468 169.922 C 54.267 169.922,54.102 170.010,54.102 170.117 C 54.102 170.225,53.920 170.313,53.697 170.313 C 53.474 170.313,53.161 170.444,52.999 170.605 C 52.838 170.767,52.534 170.898,52.324 170.898 C 52.113 170.898,51.890 171.030,51.828 171.191 C 51.767 171.353,51.515 171.484,51.270 171.484 C 51.024 171.484,50.772 171.616,50.711 171.777 C 50.649 171.938,50.448 172.070,50.264 172.070 C 49.818 172.070,48.047 172.878,48.047 173.082 C 48.047 173.170,47.832 173.242,47.568 173.242 C 47.305 173.242,47.016 173.373,46.926 173.534 C 46.837 173.694,46.527 173.845,46.238 173.869 C 45.949 173.893,45.669 174.025,45.616 174.163 C 45.563 174.301,45.298 174.414,45.026 174.414 C 44.754 174.414,44.531 174.496,44.531 174.596 C 44.531 174.697,44.290 174.807,43.994 174.841 C 43.692 174.875,43.478 175.009,43.506 175.146 C 43.534 175.289,43.355 175.391,43.076 175.391 C 42.813 175.391,42.527 175.515,42.441 175.668 C 42.355 175.820,41.994 175.978,41.638 176.018 C 41.282 176.058,40.918 176.208,40.830 176.351 C 40.742 176.494,40.440 176.611,40.159 176.611 C 39.878 176.611,39.648 176.679,39.648 176.761 C 39.648 176.843,39.418 176.969,39.137 177.039 C 38.855 177.110,38.501 177.291,38.350 177.443 C 38.198 177.594,37.946 177.668,37.789 177.608 C 37.629 177.547,37.450 177.636,37.383 177.812 C 37.317 177.984,37.057 178.125,36.805 178.125 C 36.553 178.125,36.266 178.270,36.167 178.448 C 36.068 178.625,35.755 178.795,35.473 178.825 C 35.191 178.855,34.821 179.018,34.652 179.188 C 34.482 179.357,34.269 179.450,34.177 179.393 C 34.086 179.337,33.955 179.381,33.887 179.492 C 33.818 179.603,33.680 179.643,33.580 179.582 C 33.480 179.520,33.398 179.562,33.398 179.676 C 33.398 179.790,33.176 179.883,32.904 179.883 C 32.632 179.883,32.359 180.015,32.297 180.176 C 32.235 180.337,32.016 180.469,31.809 180.469 C 31.602 180.469,31.382 180.601,31.321 180.762 C 31.247 180.953,30.944 181.055,30.448 181.055 C 29.880 181.055,29.688 181.134,29.688 181.369 C 29.688 181.558,29.579 181.641,29.414 181.577 C 29.263 181.520,29.080 181.532,29.007 181.605 C 28.934 181.678,28.815 181.741,28.743 181.745 C 28.672 181.749,28.416 181.862,28.174 181.996 C 27.932 182.130,27.734 182.187,27.734 182.122 C 27.734 182.057,27.596 182.141,27.427 182.310 C 27.259 182.479,26.907 182.617,26.646 182.617 C 26.355 182.617,26.172 182.730,26.172 182.910 C 26.172 183.115,25.965 183.203,25.482 183.203 C 25.049 183.203,24.751 183.312,24.680 183.496 C 24.618 183.657,24.362 183.789,24.112 183.789 C 23.861 183.789,23.602 183.877,23.535 183.984 C 23.469 184.092,23.250 184.180,23.049 184.180 C 22.848 184.180,22.551 184.313,22.389 184.475 C 22.226 184.638,21.817 184.826,21.479 184.894 C 21.141 184.961,20.819 185.136,20.763 185.282 C 20.707 185.428,20.462 185.547,20.218 185.547 C 19.974 185.547,19.665 185.679,19.531 185.840 C 19.398 186.001,19.141 186.133,18.960 186.133 C 18.780 186.133,18.549 186.213,18.447 186.312 C 18.345 186.411,17.956 186.538,17.581 186.595 C 17.207 186.652,16.870 186.791,16.833 186.904 C 16.795 187.017,16.618 187.112,16.439 187.116 C 16.260 187.119,15.943 187.251,15.734 187.409 C 15.526 187.566,15.152 187.695,14.904 187.695 C 14.633 187.695,14.453 187.812,14.453 187.988 C 14.453 188.192,14.248 188.281,13.781 188.281 C 13.411 188.281,13.055 188.369,12.988 188.477 C 12.922 188.584,12.703 188.672,12.502 188.672 C 12.302 188.672,12.005 188.804,11.844 188.965 C 11.683 189.126,11.374 189.258,11.156 189.258 C 10.939 189.258,10.691 189.381,10.605 189.532 C 10.520 189.683,10.156 189.853,9.797 189.909 C 9.438 189.965,8.998 190.137,8.820 190.292 C 8.642 190.447,8.386 190.534,8.252 190.486 C 8.118 190.437,7.955 190.536,7.889 190.706 C 7.820 190.887,7.542 191.016,7.220 191.016 C 6.917 191.016,6.537 191.147,6.376 191.309 C 6.214 191.470,5.854 191.602,5.574 191.602 C 5.295 191.602,5.015 191.733,4.953 191.895 C 4.892 192.056,4.628 192.187,4.368 192.187 C 4.107 192.187,3.843 192.319,3.782 192.480 C 3.717 192.649,3.425 192.773,3.097 192.773 C 2.783 192.773,2.309 192.915,2.044 193.089 C 1.779 193.262,1.560 193.328,1.556 193.235 C 1.553 193.142,1.427 193.229,1.276 193.428 C 1.125 193.627,0.777 193.803,0.501 193.819 L 0.000 193.848 0.000 200.000 L 0.000 206.152 0.481 206.180 C 0.746 206.195,1.109 206.354,1.288 206.533 C 1.466 206.712,1.726 206.815,1.864 206.762 C 2.003 206.709,2.165 206.792,2.224 206.946 C 2.283 207.100,2.560 207.227,2.840 207.227 C 3.119 207.227,3.480 207.358,3.641 207.520 C 3.802 207.681,4.138 207.813,4.388 207.813 C 4.637 207.812,4.892 207.944,4.953 208.105 C 5.015 208.267,5.295 208.398,5.574 208.398 C 5.854 208.398,6.214 208.530,6.376 208.691 C 6.537 208.853,6.917 208.984,7.220 208.984 C 7.545 208.984,7.820 209.113,7.891 209.298 C 7.961 209.481,8.135 209.563,8.310 209.496 C 8.479 209.431,8.657 209.507,8.719 209.670 C 8.780 209.829,8.909 209.910,9.005 209.851 C 9.101 209.791,9.180 209.845,9.180 209.970 C 9.180 210.096,9.306 210.150,9.460 210.090 C 9.614 210.031,9.958 210.154,10.223 210.362 C 10.489 210.571,10.896 210.742,11.129 210.742 C 11.361 210.742,11.683 210.874,11.844 211.035 C 12.005 211.196,12.307 211.328,12.514 211.328 C 12.721 211.328,12.891 211.416,12.891 211.523 C 12.891 211.631,13.148 211.719,13.463 211.719 C 13.777 211.719,14.166 211.851,14.328 212.012 C 14.489 212.173,14.805 212.305,15.031 212.305 C 15.257 212.305,15.485 212.418,15.538 212.555 C 15.591 212.693,15.864 212.825,16.145 212.848 C 16.426 212.872,16.762 213.036,16.892 213.214 C 17.022 213.391,17.214 213.483,17.318 213.419 C 17.423 213.354,17.754 213.429,18.054 213.584 C 18.354 213.740,18.800 213.867,19.044 213.867 C 19.289 213.867,19.540 213.999,19.602 214.160 C 19.664 214.321,19.893 214.453,20.111 214.453 C 20.329 214.453,20.508 214.539,20.508 214.645 C 20.508 214.750,20.750 214.893,21.045 214.963 C 21.340 215.032,21.870 215.262,22.222 215.474 C 22.574 215.685,22.991 215.809,23.149 215.748 C 23.323 215.681,23.437 215.752,23.437 215.924 C 23.437 216.113,23.638 216.211,24.023 216.211 C 24.431 216.211,24.609 216.306,24.609 216.525 C 24.609 216.709,24.719 216.797,24.874 216.737 C 25.020 216.681,25.394 216.803,25.705 217.008 C 26.015 217.213,26.458 217.381,26.688 217.382 C 26.918 217.382,27.157 217.515,27.219 217.676 C 27.281 217.837,27.554 217.969,27.826 217.969 C 28.098 217.969,28.320 218.057,28.320 218.164 C 28.320 218.271,28.575 218.359,28.885 218.359 C 29.207 218.359,29.499 218.485,29.563 218.652 C 29.625 218.813,29.888 218.945,30.149 218.945 C 30.409 218.945,30.673 219.077,30.735 219.238 C 30.804 219.420,31.102 219.531,31.516 219.531 C 31.930 219.531,32.228 219.643,32.297 219.824 C 32.359 219.985,32.632 220.117,32.904 220.117 C 33.176 220.117,33.398 220.205,33.398 220.313 C 33.398 220.420,33.568 220.508,33.775 220.508 C 33.982 220.508,34.272 220.628,34.419 220.775 C 34.566 220.922,34.902 221.110,35.165 221.192 C 35.429 221.274,35.690 221.412,35.746 221.499 C 35.802 221.585,36.099 221.701,36.405 221.757 C 36.711 221.812,37.112 221.994,37.295 222.159 C 37.478 222.325,37.715 222.461,37.821 222.461 C 37.926 222.461,38.468 222.681,39.025 222.949 C 39.582 223.218,40.162 223.438,40.315 223.438 C 40.468 223.438,40.626 223.539,40.668 223.664 C 40.709 223.788,40.956 223.923,41.217 223.962 C 41.477 224.002,41.762 224.164,41.851 224.322 C 41.939 224.480,42.227 224.609,42.490 224.609 C 42.753 224.609,42.969 224.696,42.969 224.802 C 42.969 224.909,43.322 225.052,43.754 225.121 C 44.186 225.190,44.587 225.323,44.645 225.416 C 44.702 225.510,44.911 225.586,45.108 225.586 C 45.305 225.586,45.517 225.718,45.578 225.879 C 45.640 226.040,45.904 226.172,46.164 226.172 C 46.425 226.172,46.688 226.304,46.750 226.465 C 46.812 226.626,47.076 226.758,47.336 226.758 C 47.597 226.758,47.860 226.890,47.922 227.051 C 47.984 227.212,48.202 227.344,48.407 227.344 C 48.613 227.344,48.893 227.480,49.031 227.646 C 49.169 227.812,49.391 227.905,49.525 227.854 C 49.658 227.803,49.922 227.931,50.110 228.138 C 50.297 228.346,50.591 228.518,50.763 228.522 C 50.934 228.525,51.245 228.657,51.453 228.815 C 51.662 228.973,51.981 229.102,52.162 229.102 C 52.343 229.102,52.587 229.217,52.704 229.357 C 52.820 229.498,53.368 229.736,53.921 229.887 C 54.474 230.037,54.970 230.274,55.023 230.412 C 55.076 230.551,55.374 230.664,55.685 230.664 C 56.057 230.664,56.250 230.764,56.250 230.957 C 56.250 231.152,56.445 231.250,56.836 231.250 C 57.201 231.250,57.403 231.342,57.373 231.494 C 57.346 231.631,57.559 231.765,57.861 231.800 C 58.157 231.834,58.398 231.944,58.398 232.044 C 58.398 232.145,58.662 232.227,58.984 232.227 C 59.375 232.227,59.570 232.324,59.570 232.520 C 59.570 232.701,59.754 232.813,60.052 232.813 C 60.333 232.813,60.620 232.975,60.742 233.203 C 60.866 233.435,61.151 233.594,61.444 233.594 C 61.715 233.594,61.888 233.672,61.829 233.769 C 61.699 233.979,62.266 234.227,62.519 234.070 C 62.617 234.009,62.751 234.097,62.815 234.265 C 62.880 234.433,63.133 234.570,63.379 234.570 C 63.624 234.570,63.876 234.702,63.938 234.863 C 64.000 235.024,64.263 235.156,64.524 235.156 C 64.784 235.156,65.048 235.288,65.110 235.449 C 65.172 235.610,65.435 235.742,65.696 235.742 C 65.956 235.742,66.220 235.874,66.282 236.035 C 66.343 236.196,66.530 236.328,66.697 236.328 C 66.864 236.328,67.348 236.548,67.773 236.816 C 68.199 237.085,68.671 237.305,68.823 237.305 C 68.975 237.305,69.149 237.437,69.211 237.598 C 69.273 237.759,69.491 237.891,69.697 237.891 C 69.902 237.891,70.179 238.022,70.312 238.184 C 70.446 238.345,70.721 238.477,70.922 238.477 C 71.124 238.477,71.289 238.557,71.289 238.656 C 71.289 238.755,71.545 238.892,71.859 238.961 C 72.172 239.030,72.477 239.213,72.536 239.367 C 72.595 239.522,72.866 239.648,73.138 239.648 C 73.430 239.648,73.613 239.749,73.584 239.893 C 73.556 240.031,73.773 240.164,74.084 240.200 C 74.386 240.234,74.681 240.388,74.739 240.541 C 74.798 240.695,74.975 240.820,75.132 240.820 C 75.288 240.820,75.696 241.032,76.038 241.291 C 76.380 241.550,76.880 241.794,77.148 241.833 C 77.417 241.872,77.615 242.012,77.588 242.143 C 77.561 242.275,77.605 242.372,77.686 242.360 C 78.131 242.289,78.516 242.413,78.516 242.627 C 78.516 242.761,78.749 242.885,79.035 242.901 C 79.320 242.918,79.632 243.072,79.728 243.243 C 79.824 243.414,80.074 243.555,80.283 243.555 C 80.493 243.555,80.664 243.643,80.664 243.750 C 80.664 243.857,80.785 243.945,80.933 243.945 C 81.081 243.945,81.312 244.077,81.445 244.238 C 81.579 244.399,81.810 244.531,81.958 244.531 C 82.105 244.531,82.402 244.707,82.617 244.922 C 82.832 245.137,83.140 245.313,83.301 245.313 C 83.462 245.313,83.594 245.400,83.594 245.508 C 83.594 245.615,83.705 245.703,83.841 245.703 C 83.978 245.703,84.439 245.942,84.867 246.234 C 85.295 246.526,85.768 246.784,85.918 246.807 C 86.068 246.830,86.259 246.959,86.342 247.092 C 86.425 247.226,86.646 247.358,86.835 247.386 C 87.024 247.414,87.256 247.576,87.351 247.746 C 87.446 247.916,87.607 248.004,87.709 247.941 C 87.810 247.878,87.946 247.964,88.011 248.132 C 88.075 248.300,88.341 248.437,88.601 248.437 C 88.862 248.437,89.125 248.569,89.187 248.730 C 89.249 248.892,89.501 249.023,89.746 249.023 C 89.992 249.023,90.243 249.155,90.305 249.316 C 90.367 249.478,90.552 249.609,90.717 249.609 C 90.881 249.609,90.994 249.719,90.967 249.854 C 90.939 249.991,91.154 250.125,91.458 250.160 C 91.756 250.194,91.948 250.304,91.886 250.404 C 91.824 250.504,91.933 250.588,92.127 250.590 C 92.321 250.593,92.820 250.901,93.234 251.274 C 93.649 251.648,94.072 251.953,94.175 251.953 C 94.278 251.953,94.650 252.173,95.002 252.441 C 95.354 252.710,95.709 252.930,95.791 252.930 C 95.873 252.930,96.273 253.193,96.680 253.516 C 97.087 253.838,97.561 254.102,97.733 254.102 C 97.906 254.102,98.047 254.233,98.047 254.395 C 98.047 254.556,98.113 254.672,98.193 254.652 C 98.400 254.603,99.607 255.340,99.608 255.518 C 99.609 255.598,99.826 255.664,100.092 255.664 C 100.440 255.664,100.542 255.745,100.461 255.957 C 100.379 256.171,100.486 256.250,100.858 256.250 C 101.180 256.250,101.367 256.357,101.367 256.543 C 101.367 256.704,101.499 256.836,101.660 256.836 C 101.821 256.836,101.953 256.924,101.953 257.031 C 101.953 257.139,102.078 257.227,102.231 257.227 C 102.384 257.227,102.769 257.486,103.086 257.804 C 103.404 258.121,103.718 258.326,103.785 258.259 C 103.852 258.193,103.906 258.241,103.906 258.366 C 103.906 258.491,103.972 258.583,104.053 258.571 C 104.460 258.506,104.688 258.624,104.688 258.898 C 104.688 259.066,104.760 259.158,104.848 259.104 C 104.936 259.049,105.150 259.154,105.323 259.336 C 105.865 259.909,106.224 260.156,106.514 260.156 C 106.668 260.156,106.845 260.288,106.907 260.449 C 106.968 260.610,107.154 260.742,107.318 260.742 C 107.483 260.742,107.617 260.879,107.617 261.047 C 107.617 261.214,107.693 261.304,107.786 261.247 C 107.879 261.189,108.113 261.316,108.305 261.528 C 108.497 261.740,108.773 261.914,108.917 261.914 C 109.061 261.914,109.180 262.002,109.180 262.109 C 109.180 262.217,109.312 262.305,109.473 262.305 C 109.634 262.305,109.766 262.437,109.766 262.598 C 109.766 262.759,109.897 262.891,110.059 262.891 C 110.220 262.891,110.520 263.059,110.726 263.265 C 110.932 263.471,111.152 263.588,111.214 263.525 C 111.277 263.463,111.328 263.522,111.328 263.657 C 111.328 263.941,112.102 264.632,112.430 264.642 C 112.553 264.646,112.704 264.780,112.766 264.941 C 112.828 265.103,113.057 265.234,113.275 265.234 C 113.498 265.234,113.672 265.363,113.672 265.527 C 113.672 265.688,113.804 265.820,113.965 265.820 C 114.126 265.820,114.258 265.957,114.258 266.125 C 114.258 266.292,114.346 266.375,114.453 266.309 C 114.561 266.242,114.648 266.315,114.648 266.470 C 114.648 266.625,114.802 266.807,114.990 266.875 C 115.589 267.091,116.099 267.459,116.913 268.262 C 118.209 269.539,119.399 270.589,119.955 270.945 C 120.242 271.128,121.110 271.896,121.883 272.651 C 122.656 273.406,123.366 274.023,123.461 274.023 C 123.555 274.023,123.633 274.107,123.633 274.209 C 123.633 274.452,125.548 276.367,125.791 276.367 C 125.893 276.367,125.977 276.446,125.977 276.542 C 125.977 276.806,127.643 278.516,127.900 278.516 C 128.024 278.516,128.125 278.647,128.125 278.809 C 128.125 278.970,128.213 279.102,128.320 279.102 C 128.428 279.102,128.516 279.193,128.516 279.305 C 128.516 279.648,129.354 280.664,129.638 280.664 C 129.785 280.664,129.855 280.746,129.793 280.846 C 129.732 280.946,129.902 281.266,130.173 281.558 C 130.443 281.850,130.670 282.010,130.678 281.913 C 130.685 281.817,130.755 281.899,130.832 282.095 C 130.909 282.290,131.035 282.444,131.111 282.436 C 131.340 282.412,132.031 283.184,132.031 283.464 C 132.031 283.607,132.383 284.105,132.813 284.570 C 133.242 285.036,133.594 285.490,133.594 285.579 C 133.594 285.669,133.715 285.742,133.864 285.742 C 134.013 285.742,134.186 285.896,134.249 286.084 C 134.449 286.679,135.424 288.082,135.681 288.145 C 135.768 288.166,135.817 288.252,135.789 288.336 C 135.761 288.419,135.871 288.538,136.033 288.601 C 136.195 288.663,136.328 288.836,136.328 288.986 C 136.328 289.135,136.431 289.258,136.556 289.258 C 136.681 289.258,136.733 289.309,136.670 289.372 C 136.607 289.434,136.900 289.830,137.321 290.251 C 137.742 290.671,138.086 291.197,138.086 291.418 C 138.086 291.639,138.168 291.770,138.267 291.708 C 138.367 291.646,138.505 291.773,138.573 291.989 C 138.642 292.206,138.824 292.383,138.978 292.383 C 139.132 292.383,139.258 292.561,139.258 292.780 C 139.258 292.998,139.390 293.227,139.551 293.289 C 139.712 293.351,139.844 293.535,139.844 293.700 C 139.844 293.864,140.063 294.202,140.332 294.451 C 140.601 294.700,140.820 295.003,140.820 295.126 C 140.820 295.395,141.523 296.317,141.706 296.289 C 141.778 296.278,142.021 296.648,142.246 297.109 C 142.472 297.571,142.815 298.064,143.008 298.204 C 143.201 298.345,143.359 298.587,143.359 298.742 C 143.359 298.897,143.447 299.023,143.555 299.023 C 143.662 299.023,143.750 299.209,143.750 299.435 C 143.750 299.721,143.840 299.812,144.043 299.734 C 144.222 299.665,144.336 299.734,144.336 299.911 C 144.336 300.248,144.723 300.979,145.054 301.266 C 145.180 301.375,145.475 301.838,145.708 302.295 C 145.942 302.751,146.212 303.125,146.309 303.125 C 146.405 303.125,146.484 303.288,146.484 303.487 C 146.484 303.686,146.704 304.086,146.973 304.376 C 147.241 304.666,147.461 305.014,147.461 305.149 C 147.461 305.284,147.745 305.685,148.093 306.041 C 148.440 306.396,148.735 306.787,148.747 306.908 C 148.759 307.030,148.782 307.244,148.798 307.385 C 148.815 307.525,148.917 307.585,149.026 307.518 C 149.136 307.450,149.277 307.662,149.343 307.995 C 149.409 308.324,149.540 308.594,149.634 308.594 C 149.728 308.594,149.805 308.726,149.805 308.887 C 149.805 309.048,149.937 309.180,150.098 309.180 C 150.278 309.180,150.391 309.363,150.391 309.658 C 150.391 309.921,150.513 310.207,150.662 310.293 C 150.811 310.379,150.970 310.625,151.015 310.840 C 151.060 311.055,151.199 311.210,151.323 311.184 C 151.447 311.158,151.503 311.257,151.447 311.403 C 151.391 311.549,151.482 311.805,151.649 311.973 C 151.816 312.140,151.953 312.411,151.953 312.574 C 151.953 312.737,152.063 312.942,152.197 313.027 C 152.471 313.203,152.837 313.747,153.121 314.404 C 153.225 314.646,153.401 314.844,153.511 314.844 C 153.621 314.844,153.711 315.063,153.711 315.332 C 153.711 315.601,153.777 315.821,153.857 315.823 C 153.938 315.824,154.175 316.181,154.384 316.617 C 154.593 317.053,154.922 317.495,155.116 317.598 C 155.310 317.702,155.469 318.004,155.469 318.269 C 155.469 318.566,155.581 318.750,155.762 318.750 C 155.944 318.750,156.055 318.934,156.055 319.238 C 156.055 319.507,156.137 319.727,156.237 319.727 C 156.337 319.727,156.447 319.968,156.481 320.264 C 156.516 320.566,156.650 320.779,156.787 320.752 C 157.001 320.709,157.127 321.083,157.053 321.539 C 157.039 321.622,157.160 321.741,157.322 321.804 C 157.485 321.866,157.617 322.030,157.617 322.168 C 157.617 322.306,157.749 322.470,157.910 322.532 C 158.071 322.593,158.203 322.806,158.203 323.003 C 158.203 323.201,158.325 323.530,158.474 323.734 C 158.624 323.938,158.702 324.218,158.649 324.355 C 158.597 324.493,158.694 324.660,158.866 324.726 C 159.039 324.792,159.180 325.007,159.180 325.202 C 159.180 325.398,159.312 325.690,159.473 325.851 C 159.634 326.012,159.766 326.229,159.766 326.332 C 159.766 326.436,159.897 326.571,160.059 326.633 C 160.220 326.695,160.352 326.877,160.352 327.039 C 160.352 327.384,161.095 328.860,161.348 329.016 C 161.445 329.076,161.523 329.295,161.523 329.504 C 161.523 329.712,161.633 329.861,161.768 329.834 C 161.915 329.805,162.036 330.044,162.074 330.436 C 162.119 330.905,162.214 331.056,162.416 330.979 C 162.620 330.901,162.695 331.029,162.695 331.451 C 162.695 331.770,162.783 332.031,162.891 332.031 C 162.998 332.031,163.086 332.201,163.086 332.408 C 163.086 332.615,163.218 332.916,163.379 333.078 C 163.540 333.239,163.672 333.553,163.672 333.775 C 163.672 334.005,163.799 334.180,163.965 334.180 C 164.160 334.180,164.258 334.375,164.258 334.766 C 164.258 335.117,164.351 335.332,164.491 335.303 C 164.619 335.276,164.776 335.474,164.838 335.742 C 165.002 336.443,166.027 338.549,166.285 338.714 C 166.497 338.849,166.525 338.929,166.577 339.551 C 166.591 339.712,166.709 339.822,166.841 339.795 C 166.973 339.768,167.111 339.966,167.148 340.234 C 167.185 340.503,167.319 340.811,167.445 340.918 C 167.572 341.025,167.698 341.317,167.725 341.567 C 167.752 341.816,167.906 342.153,168.068 342.315 C 168.230 342.477,168.313 342.691,168.251 342.791 C 168.190 342.890,168.277 343.024,168.445 343.089 C 168.613 343.153,168.750 343.419,168.750 343.679 C 168.750 343.940,168.882 344.203,169.043 344.265 C 169.204 344.327,169.336 344.550,169.336 344.761 C 169.336 344.972,169.468 345.277,169.629 345.438 C 169.790 345.599,169.922 345.901,169.922 346.108 C 169.922 346.315,170.010 346.484,170.117 346.484 C 170.225 346.484,170.313 346.707,170.313 346.979 C 170.312 347.251,170.444 347.524,170.605 347.586 C 170.767 347.647,170.898 347.899,170.898 348.145 C 170.898 348.390,171.030 348.642,171.191 348.703 C 171.353 348.765,171.484 349.007,171.484 349.240 C 171.484 349.473,171.620 349.763,171.786 349.885 C 171.952 350.006,172.103 350.301,172.121 350.541 C 172.139 350.781,172.223 350.977,172.307 350.977 C 172.392 350.977,172.461 351.140,172.461 351.341 C 172.461 351.541,172.637 351.929,172.852 352.202 C 173.066 352.475,173.242 352.885,173.242 353.113 C 173.242 353.341,173.374 353.578,173.535 353.640 C 173.696 353.702,173.828 353.966,173.828 354.226 C 173.828 354.487,173.960 354.750,174.121 354.812 C 174.282 354.874,174.414 355.130,174.414 355.380 C 174.414 355.631,174.502 355.891,174.609 355.957 C 174.717 356.023,174.805 356.292,174.805 356.554 C 174.805 356.848,174.917 357.031,175.098 357.031 C 175.349 357.031,175.499 357.518,175.414 358.057 C 175.401 358.137,175.522 358.203,175.684 358.203 C 175.867 358.203,175.977 358.388,175.977 358.698 C 175.977 358.969,176.108 359.243,176.270 359.304 C 176.437 359.368,176.562 359.660,176.563 359.982 C 176.563 360.293,176.650 360.547,176.758 360.547 C 176.865 360.547,176.953 360.683,176.953 360.850 C 176.953 361.016,177.102 361.433,177.284 361.777 C 177.466 362.121,177.636 362.520,177.660 362.664 C 177.685 362.807,177.832 363.071,177.987 363.250 C 178.142 363.428,178.230 363.684,178.181 363.818 C 178.132 363.952,178.232 364.116,178.402 364.181 C 178.572 364.246,178.712 364.444,178.712 364.621 C 178.713 364.797,178.884 365.200,179.092 365.515 C 179.300 365.831,179.425 366.161,179.371 366.249 C 179.317 366.337,179.410 366.462,179.577 366.526 C 179.769 366.600,179.883 366.883,179.883 367.285 C 179.883 367.675,179.998 367.971,180.176 368.039 C 180.347 368.105,180.469 368.398,180.469 368.744 C 180.469 369.113,180.561 369.318,180.713 369.287 C 180.854 369.259,180.985 369.485,181.023 369.824 C 181.060 370.146,181.186 370.468,181.303 370.540 C 181.420 370.613,181.530 370.872,181.548 371.117 C 181.566 371.362,181.682 371.596,181.806 371.637 C 181.930 371.678,182.031 371.896,182.031 372.120 C 182.031 372.344,182.161 372.671,182.320 372.846 C 182.478 373.022,182.636 373.350,182.670 373.575 C 182.705 373.801,182.830 374.104,182.950 374.249 C 183.069 374.393,183.196 374.688,183.233 374.902 C 183.270 375.117,183.411 375.409,183.545 375.551 C 183.679 375.693,183.789 375.969,183.789 376.165 C 183.789 376.361,183.919 376.571,184.079 376.632 C 184.238 376.693,184.321 376.867,184.262 377.019 C 184.204 377.171,184.337 377.592,184.558 377.955 C 184.779 378.317,184.960 378.770,184.960 378.961 C 184.961 379.153,185.093 379.360,185.254 379.422 C 185.415 379.483,185.547 379.652,185.547 379.796 C 185.547 379.940,185.767 380.471,186.035 380.976 C 186.304 381.481,186.523 382.147,186.523 382.457 C 186.523 382.777,186.650 383.069,186.816 383.132 C 186.978 383.194,187.109 383.401,187.109 383.591 C 187.109 383.781,187.241 384.046,187.402 384.180 C 187.563 384.313,187.695 384.676,187.695 384.985 C 187.695 385.354,187.796 385.547,187.988 385.547 C 188.192 385.547,188.281 385.752,188.281 386.219 C 188.281 386.589,188.369 386.945,188.477 387.012 C 188.584 387.078,188.672 387.297,188.672 387.498 C 188.672 387.698,188.803 387.994,188.964 388.155 C 189.124 388.315,189.290 388.651,189.332 388.901 C 189.374 389.151,189.507 389.333,189.626 389.307 C 189.754 389.278,189.844 389.541,189.844 389.943 C 189.844 390.377,189.981 390.746,190.217 390.949 C 190.423 391.124,190.550 391.373,190.501 391.501 C 190.452 391.629,190.548 391.847,190.714 391.985 C 190.880 392.123,191.016 392.435,191.016 392.679 C 191.016 392.923,191.147 393.173,191.309 393.235 C 191.493 393.306,191.602 393.605,191.602 394.043 C 191.602 394.481,191.710 394.780,191.895 394.851 C 192.062 394.915,192.188 395.207,192.188 395.529 C 192.188 395.877,192.281 396.075,192.432 396.045 C 192.578 396.016,192.700 396.251,192.737 396.631 C 192.771 396.980,192.881 397.266,192.981 397.266 C 193.082 397.266,193.164 397.523,193.164 397.838 C 193.164 398.152,193.296 398.541,193.457 398.703 C 193.618 398.864,193.750 399.222,193.750 399.498 L 193.750 400.000 200.189 400.000 C 205.833 400.000,206.614 399.964,206.516 399.707 C 206.454 399.545,206.510 399.414,206.642 399.414 C 206.791 399.414,206.847 399.232,206.790 398.936 C 206.734 398.643,206.801 398.418,206.963 398.356 C 207.108 398.300,207.227 398.041,207.227 397.781 C 207.227 397.520,207.358 397.257,207.520 397.195 C 207.681 397.133,207.813 396.854,207.813 396.574 C 207.812 396.295,207.944 395.934,208.105 395.773 C 208.267 395.612,208.398 395.277,208.398 395.029 C 208.398 394.782,208.533 394.467,208.698 394.331 C 208.863 394.194,208.962 393.985,208.919 393.867 C 208.875 393.749,208.972 393.501,209.132 393.316 C 209.293 393.132,209.458 392.695,209.499 392.347 C 209.539 391.999,209.704 391.640,209.864 391.550 C 210.025 391.460,210.156 391.215,210.156 391.006 C 210.156 390.796,210.249 390.625,210.363 390.625 C 210.477 390.625,210.516 390.537,210.449 390.430 C 210.383 390.322,210.431 390.234,210.556 390.234 C 210.681 390.234,210.738 390.115,210.682 389.969 C 210.626 389.824,210.748 389.450,210.953 389.139 C 211.158 388.828,211.326 388.376,211.327 388.135 C 211.328 387.893,211.416 387.695,211.523 387.695 C 211.631 387.695,211.719 387.473,211.719 387.201 C 211.719 386.929,211.850 386.656,212.011 386.594 C 212.171 386.533,212.263 386.418,212.214 386.339 C 212.165 386.260,212.297 385.874,212.508 385.481 C 212.718 385.088,212.891 384.598,212.891 384.392 C 212.891 384.186,212.980 383.987,213.090 383.950 C 213.200 383.914,213.337 383.621,213.395 383.299 C 213.453 382.978,213.583 382.631,213.684 382.529 C 213.785 382.427,213.867 382.183,213.867 381.986 C 213.867 381.789,213.999 381.578,214.160 381.516 C 214.341 381.447,214.453 381.150,214.453 380.741 C 214.453 380.376,214.532 380.078,214.629 380.078 C 214.726 380.078,214.901 379.836,215.017 379.541 C 215.134 379.246,215.312 378.872,215.414 378.711 C 215.859 378.010,216.211 377.047,216.211 376.532 C 216.211 376.169,216.312 375.977,216.504 375.977 C 216.683 375.977,216.797 375.794,216.797 375.509 C 216.797 375.252,216.929 374.991,217.090 374.929 C 217.263 374.863,217.383 374.570,217.383 374.213 C 217.383 373.881,217.466 373.661,217.568 373.724 C 217.670 373.787,217.812 373.529,217.883 373.150 C 217.954 372.771,218.090 372.461,218.186 372.461 C 218.281 372.461,218.359 372.112,218.359 371.686 C 218.359 371.094,218.425 370.936,218.639 371.018 C 218.840 371.095,218.936 370.944,218.981 370.475 C 219.015 370.117,219.134 369.840,219.246 369.859 C 219.357 369.878,219.467 369.673,219.489 369.402 C 219.540 368.783,219.701 368.516,219.935 368.661 C 220.035 368.722,220.117 368.509,220.117 368.187 C 220.117 367.865,220.195 367.553,220.290 367.494 C 220.386 367.435,220.520 367.087,220.588 366.721 C 220.657 366.355,220.843 365.947,221.001 365.816 C 221.160 365.685,221.289 365.467,221.289 365.332 C 221.289 365.197,221.425 364.974,221.591 364.836 C 221.757 364.699,221.849 364.471,221.795 364.330 C 221.740 364.189,221.811 363.959,221.951 363.819 C 222.091 363.679,222.356 363.215,222.541 362.788 C 222.725 362.361,223.002 361.763,223.156 361.459 C 223.311 361.155,223.438 360.693,223.438 360.433 C 223.438 360.144,223.551 359.961,223.730 359.961 C 223.915 359.961,224.023 359.775,224.023 359.459 C 224.023 359.182,224.155 358.825,224.316 358.664 C 224.478 358.502,224.609 358.198,224.609 357.988 C 224.609 357.777,224.744 357.553,224.908 357.490 C 225.088 357.421,225.163 357.238,225.098 357.031 C 225.032 356.824,225.107 356.641,225.287 356.572 C 225.451 356.509,225.586 356.232,225.586 355.957 C 225.586 355.682,225.718 355.406,225.879 355.344 C 226.040 355.282,226.172 355.072,226.172 354.878 C 226.172 354.683,226.299 354.275,226.455 353.971 C 226.611 353.667,226.787 353.286,226.848 353.125 C 226.909 352.964,227.177 352.445,227.444 351.971 C 227.711 351.498,227.930 350.948,227.930 350.751 C 227.930 350.553,228.062 350.391,228.223 350.391 C 228.401 350.391,228.516 350.208,228.516 349.923 C 228.516 349.666,228.647 349.405,228.809 349.343 C 228.970 349.282,229.102 349.046,229.102 348.820 C 229.102 348.594,229.238 348.273,229.406 348.105 C 229.573 347.938,229.662 347.677,229.604 347.526 C 229.546 347.375,229.629 347.201,229.788 347.140 C 229.952 347.077,230.078 346.783,230.078 346.463 C 230.078 346.133,230.182 345.898,230.330 345.898 C 230.468 345.898,230.596 345.702,230.614 345.463 C 230.632 345.223,230.782 344.928,230.948 344.806 C 231.114 344.685,231.250 344.435,231.250 344.252 C 231.250 344.068,231.382 343.786,231.543 343.624 C 231.704 343.463,231.836 343.162,231.836 342.955 C 231.836 342.748,231.924 342.578,232.031 342.578 C 232.139 342.578,232.227 342.356,232.227 342.084 C 232.227 341.812,232.358 341.539,232.520 341.477 C 232.681 341.415,232.813 341.159,232.813 340.907 C 232.813 340.655,232.922 340.379,233.057 340.293 C 233.403 340.071,234.218 338.501,234.092 338.297 C 234.034 338.203,234.118 338.076,234.278 338.015 C 234.439 337.953,234.570 337.734,234.570 337.527 C 234.570 337.320,234.702 337.101,234.863 337.039 C 235.024 336.977,235.156 336.701,235.156 336.426 C 235.156 336.150,235.288 335.875,235.449 335.813 C 235.610 335.751,235.742 335.499,235.742 335.254 C 235.742 335.008,235.874 334.757,236.035 334.695 C 236.196 334.633,236.328 334.418,236.328 334.216 C 236.328 333.797,236.848 332.681,237.122 332.512 C 237.222 332.450,237.305 332.184,237.305 331.922 C 237.305 331.628,237.417 331.445,237.598 331.445 C 237.793 331.445,237.891 331.250,237.891 330.859 C 237.891 330.506,237.984 330.293,238.126 330.322 C 238.360 330.371,238.405 330.253,238.452 329.481 C 238.466 329.259,238.565 329.133,238.674 329.201 C 238.784 329.268,238.924 329.061,238.989 328.736 C 239.054 328.414,239.228 328.103,239.377 328.046 C 239.526 327.989,239.648 327.719,239.648 327.448 C 239.648 327.116,239.756 326.953,239.974 326.953 C 240.153 326.953,240.243 326.897,240.175 326.829 C 240.107 326.760,240.216 326.472,240.418 326.188 C 240.963 325.423,241.797 323.807,241.797 323.516 C 241.797 323.376,241.922 323.191,242.076 323.105 C 242.369 322.942,242.383 322.902,242.383 322.254 C 242.383 322.033,242.472 321.907,242.580 321.974 C 242.690 322.042,242.831 321.830,242.898 321.497 C 242.969 321.140,243.139 320.898,243.319 320.898 C 243.484 320.898,243.567 320.846,243.503 320.781 C 243.356 320.635,244.121 319.141,244.343 319.141 C 244.432 319.141,244.533 318.899,244.567 318.604 C 244.602 318.301,244.736 318.088,244.873 318.115 C 245.096 318.160,245.193 317.873,245.170 317.236 C 245.165 317.102,245.261 316.991,245.383 316.990 C 245.505 316.989,245.780 316.615,245.993 316.160 C 246.206 315.705,246.492 315.262,246.628 315.176 C 246.764 315.090,246.875 314.848,246.875 314.639 C 246.875 314.429,247.007 314.258,247.168 314.258 C 247.363 314.258,247.461 314.063,247.461 313.672 C 247.461 313.281,247.559 313.086,247.754 313.086 C 247.915 313.086,248.032 313.020,248.013 312.939 C 247.965 312.735,248.479 311.675,248.777 311.363 C 248.913 311.221,249.023 310.977,249.023 310.820 C 249.023 310.663,249.155 310.484,249.316 310.422 C 249.478 310.360,249.609 310.197,249.609 310.059 C 249.609 309.920,249.741 309.757,249.902 309.695 C 250.063 309.633,250.195 309.360,250.195 309.088 C 250.195 308.816,250.283 308.594,250.391 308.594 C 250.498 308.594,250.586 308.462,250.586 308.301 C 250.586 308.140,250.718 308.008,250.879 308.008 C 251.134 308.008,251.270 307.651,251.195 307.178 C 251.182 307.097,251.309 307.031,251.476 307.031 C 251.644 307.031,251.727 306.943,251.660 306.836 C 251.594 306.729,251.633 306.641,251.746 306.641 C 251.860 306.641,251.953 306.520,251.953 306.372 C 251.953 306.224,252.084 305.994,252.244 305.861 C 252.404 305.728,252.492 305.551,252.440 305.467 C 252.388 305.383,252.483 305.262,252.650 305.198 C 252.818 305.133,252.906 305.003,252.847 304.907 C 252.733 304.723,253.427 303.720,253.850 303.457 C 253.989 303.371,254.102 303.139,254.102 302.941 C 254.102 302.743,254.220 302.536,254.364 302.480 C 254.508 302.425,254.776 302.064,254.959 301.678 C 255.142 301.292,255.376 300.977,255.478 300.977 C 255.580 300.977,255.664 300.810,255.664 300.607 C 255.664 300.403,255.796 300.187,255.957 300.125 C 256.118 300.063,256.250 299.834,256.250 299.616 C 256.250 299.397,256.334 299.219,256.437 299.219 C 256.540 299.219,256.856 298.823,257.139 298.340 C 257.423 297.856,257.739 297.461,257.843 297.461 C 257.946 297.461,257.979 297.377,257.916 297.275 C 257.853 297.173,257.980 296.995,258.198 296.878 C 258.416 296.761,258.594 296.529,258.594 296.362 C 258.594 296.032,259.270 295.077,259.406 295.214 C 259.452 295.260,259.661 294.971,259.870 294.572 C 260.079 294.174,260.304 293.804,260.369 293.750 C 260.435 293.696,260.594 293.452,260.723 293.207 C 260.855 292.957,261.053 292.822,261.176 292.898 C 261.317 292.985,261.352 292.921,261.273 292.715 C 261.144 292.381,262.414 290.681,262.724 290.771 C 262.816 290.798,262.877 290.754,262.860 290.674 C 262.843 290.593,262.926 290.308,263.043 290.039 C 263.160 289.771,263.262 289.638,263.269 289.744 C 263.286 290.016,264.640 288.433,264.645 288.135 C 264.647 288.000,264.736 287.891,264.844 287.891 C 264.951 287.891,265.039 287.760,265.039 287.599 C 265.039 287.439,265.215 287.198,265.430 287.064 C 265.645 286.930,265.820 286.709,265.820 286.574 C 265.820 286.439,265.949 286.328,266.107 286.328 C 266.282 286.328,266.350 286.214,266.282 286.035 C 266.210 285.850,266.284 285.742,266.483 285.742 C 266.656 285.742,266.797 285.610,266.797 285.449 C 266.797 285.288,266.883 285.156,266.988 285.156 C 267.094 285.156,267.235 284.937,267.303 284.668 C 267.370 284.399,267.547 284.180,267.697 284.180 C 267.846 284.180,267.969 284.048,267.969 283.887 C 267.969 283.726,268.101 283.594,268.262 283.594 C 268.423 283.594,268.555 283.462,268.555 283.301 C 268.555 283.140,268.643 283.008,268.750 283.008 C 268.857 283.008,268.945 282.876,268.945 282.715 C 268.945 282.554,269.062 282.422,269.205 282.422 C 269.348 282.422,269.758 282.004,270.116 281.494 C 270.474 280.984,271.016 280.330,271.321 280.040 C 271.626 279.751,271.875 279.421,271.875 279.308 C 271.875 279.194,272.007 279.102,272.168 279.102 C 272.329 279.102,272.461 278.970,272.461 278.809 C 272.461 278.647,272.542 278.516,272.641 278.516 C 272.876 278.516,274.023 277.368,274.023 277.133 C 274.023 277.034,274.155 276.953,274.316 276.953 C 274.478 276.953,274.609 276.867,274.609 276.762 C 274.609 276.657,275.004 276.207,275.486 275.763 C 275.968 275.318,276.314 274.877,276.256 274.782 C 276.197 274.687,276.330 274.609,276.551 274.609 C 276.778 274.609,276.953 274.482,276.953 274.316 C 276.953 274.155,277.034 274.023,277.133 274.023 C 277.368 274.023,278.516 272.876,278.516 272.641 C 278.516 272.542,278.647 272.461,278.809 272.461 C 278.970 272.461,279.102 272.329,279.102 272.168 C 279.102 272.007,279.211 271.874,279.346 271.873 C 279.480 271.872,279.897 271.521,280.273 271.094 C 280.649 270.666,281.046 270.315,281.156 270.314 C 281.265 270.313,281.767 269.917,282.272 269.434 C 282.776 268.950,283.280 268.555,283.391 268.555 C 283.503 268.555,283.594 268.423,283.594 268.262 C 283.594 268.101,283.726 267.969,283.887 267.969 C 284.048 267.969,284.180 267.837,284.180 267.676 C 284.180 267.515,284.292 267.383,284.429 267.383 C 284.567 267.383,284.833 267.203,285.020 266.984 C 285.208 266.764,285.448 266.638,285.552 266.702 C 285.657 266.767,285.742 266.686,285.742 266.522 C 285.742 266.337,285.854 266.266,286.035 266.336 C 286.221 266.407,286.328 266.333,286.328 266.134 C 286.328 265.962,286.460 265.820,286.621 265.820 C 286.782 265.820,286.914 265.688,286.914 265.527 C 286.914 265.366,287.036 265.234,287.186 265.234 C 287.336 265.234,287.509 265.103,287.571 264.941 C 287.632 264.780,287.808 264.648,287.961 264.648 C 288.114 264.648,288.292 264.511,288.357 264.343 C 288.421 264.175,288.551 264.085,288.645 264.144 C 288.739 264.202,289.113 263.961,289.476 263.609 C 289.840 263.257,290.291 262.910,290.479 262.838 C 290.667 262.766,290.820 262.617,290.820 262.506 C 290.820 262.395,290.912 262.305,291.025 262.305 C 291.138 262.305,291.433 262.085,291.682 261.816 C 291.931 261.548,292.281 261.328,292.460 261.328 C 292.639 261.328,292.836 261.196,292.898 261.035 C 292.960 260.874,293.113 260.742,293.239 260.742 C 293.365 260.742,293.687 260.500,293.955 260.205 C 294.224 259.910,294.557 259.644,294.697 259.614 C 295.067 259.536,295.898 258.964,295.898 258.788 C 295.898 258.704,296.118 258.581,296.387 258.514 C 296.655 258.446,296.875 258.305,296.875 258.199 C 296.875 258.094,296.963 258.008,297.070 258.008 C 297.178 258.008,297.435 257.854,297.642 257.666 C 298.263 257.103,298.518 256.921,298.877 256.783 C 299.065 256.712,299.219 256.562,299.219 256.451 C 299.219 256.341,299.351 256.250,299.512 256.250 C 299.673 256.250,299.805 256.118,299.805 255.957 C 299.805 255.789,299.981 255.664,300.218 255.664 C 300.446 255.664,300.935 255.398,301.304 255.074 C 301.674 254.749,302.060 254.535,302.162 254.598 C 302.263 254.661,302.399 254.575,302.464 254.407 C 302.528 254.239,302.694 254.102,302.832 254.102 C 302.970 254.102,303.134 253.970,303.196 253.809 C 303.257 253.647,303.487 253.516,303.705 253.516 C 303.923 253.516,304.102 253.430,304.102 253.325 C 304.102 253.220,304.487 252.959,304.957 252.745 C 305.428 252.530,305.870 252.208,305.939 252.028 C 306.007 251.849,306.121 251.759,306.190 251.828 C 306.349 251.987,307.240 251.419,307.579 250.943 C 307.720 250.747,308.005 250.586,308.214 250.586 C 308.423 250.586,308.594 250.500,308.594 250.394 C 308.594 250.289,308.813 250.148,309.082 250.080 C 309.351 250.013,309.570 249.879,309.570 249.784 C 309.570 249.688,309.751 249.609,309.972 249.609 C 310.194 249.609,310.320 249.521,310.253 249.412 C 310.131 249.215,310.924 248.809,311.161 248.948 C 311.230 248.988,311.338 248.890,311.399 248.729 C 311.461 248.569,311.635 248.437,311.786 248.437 C 311.938 248.437,312.170 248.307,312.303 248.147 C 312.436 247.987,312.623 247.904,312.719 247.964 C 312.815 248.023,312.946 247.934,313.011 247.766 C 313.075 247.598,313.334 247.461,313.585 247.461 C 313.837 247.461,314.113 247.351,314.199 247.217 C 314.358 246.969,314.898 246.588,315.430 246.351 C 315.591 246.279,315.767 246.170,315.820 246.108 C 315.874 246.046,316.423 245.732,317.040 245.410 C 317.658 245.088,318.163 244.758,318.163 244.678 C 318.164 244.597,318.299 244.531,318.463 244.531 C 318.628 244.531,318.813 244.399,318.875 244.238 C 318.937 244.077,319.096 243.945,319.229 243.945 C 319.548 243.945,320.665 243.384,320.808 243.152 C 320.871 243.051,321.141 242.969,321.410 242.969 C 321.689 242.969,321.846 242.884,321.776 242.771 C 321.708 242.661,321.926 242.519,322.269 242.450 C 322.608 242.383,322.931 242.208,322.987 242.062 C 323.043 241.916,323.214 241.797,323.367 241.797 C 323.520 241.797,323.694 241.671,323.753 241.516 C 323.814 241.356,323.992 241.286,324.166 241.353 C 324.334 241.417,324.571 241.333,324.694 241.164 C 324.817 240.996,325.134 240.826,325.398 240.786 C 325.663 240.746,325.857 240.606,325.830 240.474 C 325.802 240.335,325.989 240.234,326.276 240.234 C 326.548 240.234,326.821 240.103,326.882 239.941 C 326.944 239.780,327.148 239.648,327.335 239.648 C 327.522 239.648,327.877 239.473,328.125 239.258 C 328.373 239.043,328.694 238.867,328.838 238.867 C 328.983 238.867,329.102 238.779,329.102 238.672 C 329.102 238.564,329.267 238.477,329.468 238.477 C 329.670 238.477,329.944 238.345,330.078 238.184 C 330.212 238.022,330.477 237.891,330.667 237.891 C 330.857 237.891,331.063 237.759,331.125 237.598 C 331.187 237.437,331.416 237.305,331.634 237.305 C 331.853 237.305,332.031 237.195,332.031 237.061 C 332.031 236.926,332.270 236.803,332.562 236.786 C 332.855 236.769,333.125 236.659,333.165 236.541 C 333.204 236.424,333.448 236.328,333.708 236.328 C 333.997 236.328,334.180 236.215,334.180 236.035 C 334.180 235.842,334.373 235.742,334.745 235.742 C 335.067 235.742,335.358 235.616,335.422 235.449 C 335.484 235.288,335.704 235.156,335.910 235.156 C 336.117 235.156,336.337 235.024,336.399 234.863 C 336.461 234.702,336.724 234.570,336.985 234.570 C 337.245 234.570,337.508 234.440,337.569 234.281 C 337.631 234.121,337.804 234.038,337.956 234.097 C 338.107 234.155,338.388 234.045,338.581 233.852 C 338.773 233.660,339.026 233.492,339.143 233.480 C 339.260 233.468,339.465 233.445,339.600 233.428 C 339.734 233.412,339.844 233.267,339.844 233.105 C 339.844 232.922,340.029 232.813,340.338 232.813 C 340.610 232.813,340.883 232.681,340.945 232.520 C 341.007 232.358,341.263 232.227,341.513 232.227 C 341.764 232.227,342.023 232.139,342.090 232.031 C 342.156 231.924,342.384 231.836,342.596 231.836 C 342.808 231.836,343.032 231.704,343.093 231.543 C 343.155 231.382,343.419 231.250,343.679 231.250 C 343.940 231.250,344.203 231.118,344.265 230.957 C 344.327 230.796,344.588 230.664,344.845 230.664 C 345.130 230.664,345.313 230.550,345.313 230.371 C 345.313 230.176,345.508 230.078,345.898 230.078 C 346.221 230.078,346.484 229.990,346.484 229.883 C 346.484 229.775,346.707 229.688,346.979 229.687 C 347.251 229.687,347.524 229.556,347.586 229.395 C 347.647 229.233,347.899 229.102,348.145 229.102 C 348.390 229.102,348.642 228.970,348.703 228.809 C 348.765 228.647,348.987 228.516,349.197 228.516 C 349.614 228.516,352.401 227.167,352.507 226.914 C 352.542 226.828,352.787 226.758,353.050 226.758 C 353.313 226.758,353.578 226.626,353.640 226.465 C 353.704 226.298,353.996 226.172,354.318 226.172 C 354.690 226.172,354.883 226.072,354.883 225.879 C 354.883 225.686,355.076 225.586,355.448 225.586 C 355.759 225.586,356.061 225.461,356.119 225.308 C 356.185 225.138,356.382 225.071,356.629 225.136 C 356.913 225.210,357.031 225.148,357.031 224.925 C 357.031 224.707,357.206 224.609,357.596 224.609 C 357.918 224.609,358.210 224.483,358.274 224.316 C 358.336 224.155,358.602 224.023,358.867 224.023 C 359.131 224.023,359.478 223.892,359.639 223.732 C 359.800 223.571,360.091 223.413,360.288 223.380 C 360.484 223.347,360.837 223.215,361.071 223.086 C 361.306 222.957,361.641 222.852,361.815 222.852 C 361.990 222.852,362.078 222.764,362.012 222.656 C 361.944 222.546,362.099 222.461,362.367 222.461 C 362.629 222.461,362.952 222.329,363.086 222.168 C 363.220 222.007,363.528 221.875,363.771 221.875 C 364.055 221.875,364.250 221.729,364.320 221.465 C 364.387 221.205,364.514 221.108,364.664 221.201 C 364.794 221.281,365.305 221.145,365.800 220.899 C 366.295 220.652,366.852 220.375,367.038 220.284 C 367.225 220.192,367.545 220.117,367.750 220.117 C 367.955 220.117,368.173 219.985,368.235 219.824 C 368.297 219.663,368.528 219.531,368.750 219.531 C 368.972 219.531,369.203 219.399,369.265 219.238 C 369.328 219.075,369.618 218.945,369.922 218.945 C 370.225 218.945,370.516 218.816,370.578 218.652 C 370.642 218.487,370.932 218.359,371.244 218.359 C 371.548 218.359,371.887 218.269,371.997 218.159 C 372.107 218.050,372.410 217.919,372.670 217.868 C 372.930 217.818,373.173 217.689,373.209 217.580 C 373.245 217.472,373.490 217.383,373.753 217.383 C 374.016 217.383,374.282 217.251,374.343 217.090 C 374.405 216.929,374.581 216.797,374.735 216.797 C 374.888 216.797,375.211 216.667,375.453 216.509 C 375.694 216.351,376.065 216.189,376.276 216.148 C 376.796 216.050,377.721 215.685,378.350 215.331 C 378.636 215.170,379.009 215.039,379.181 215.039 C 379.352 215.039,379.470 214.929,379.443 214.795 C 379.413 214.642,379.671 214.528,380.138 214.490 C 380.557 214.455,380.928 214.306,380.989 214.148 C 381.048 213.993,381.205 213.867,381.339 213.867 C 381.472 213.867,381.857 213.729,382.194 213.561 C 382.531 213.393,382.897 213.311,383.007 213.378 C 383.116 213.446,383.259 213.364,383.323 213.196 C 383.388 213.028,383.666 212.891,383.941 212.891 C 384.217 212.891,384.585 212.761,384.760 212.602 C 384.936 212.444,385.290 212.282,385.547 212.243 C 385.804 212.203,386.048 212.069,386.090 211.945 C 386.131 211.821,386.329 211.719,386.528 211.719 C 386.728 211.719,386.945 211.631,387.012 211.523 C 387.078 211.416,387.330 211.328,387.572 211.328 C 387.814 211.328,388.182 211.199,388.390 211.041 C 388.599 210.884,388.930 210.752,389.125 210.748 C 389.321 210.745,389.613 210.610,389.774 210.449 C 389.935 210.288,390.276 210.156,390.532 210.156 C 390.787 210.156,391.072 210.020,391.166 209.854 C 391.259 209.687,391.636 209.513,392.004 209.466 C 392.372 209.420,392.703 209.292,392.740 209.183 C 392.776 209.074,392.977 208.984,393.186 208.984 C 393.396 208.984,393.618 208.853,393.679 208.691 C 393.742 208.529,394.032 208.398,394.333 208.398 C 394.631 208.398,394.983 208.267,395.117 208.105 C 395.251 207.944,395.616 207.813,395.928 207.813 C 396.253 207.813,396.545 207.687,396.609 207.520 C 396.673 207.353,396.964 207.227,397.287 207.227 C 397.620 207.227,397.852 207.123,397.852 206.972 C 397.852 206.813,398.122 206.710,398.578 206.697 C 398.977 206.686,399.336 206.581,399.375 206.463 C 399.415 206.346,399.571 206.250,399.723 206.250 C 399.956 206.250,400.000 205.262,400.000 200.000 C 400.000 194.575,399.961 193.750,399.707 193.750 C 399.546 193.750,399.414 193.663,399.414 193.557 C 399.414 193.451,399.063 193.308,398.633 193.239 C 398.203 193.170,397.852 193.037,397.852 192.944 C 397.852 192.850,397.597 192.773,397.287 192.773 C 396.976 192.773,396.678 192.661,396.626 192.524 C 396.573 192.386,396.236 192.252,395.876 192.224 C 395.517 192.197,395.151 192.046,395.063 191.888 C 394.975 191.730,394.643 191.602,394.326 191.602 C 393.968 191.602,393.750 191.500,393.750 191.333 C 393.750 191.174,393.542 191.064,393.240 191.064 C 392.959 191.064,392.671 190.971,392.601 190.857 C 392.530 190.742,392.215 190.602,391.902 190.545 C 391.588 190.488,391.256 190.307,391.164 190.143 C 391.072 189.978,390.798 189.844,390.557 189.844 C 390.315 189.844,390.023 189.750,389.909 189.636 C 389.794 189.521,389.403 189.381,389.040 189.324 C 388.676 189.268,388.309 189.098,388.223 188.947 C 388.137 188.795,387.851 188.672,387.588 188.672 C 387.325 188.672,387.109 188.584,387.109 188.477 C 387.109 188.369,386.900 188.281,386.645 188.281 C 386.390 188.281,386.071 188.149,385.938 187.988 C 385.804 187.827,385.439 187.695,385.126 187.695 C 384.801 187.695,384.510 187.570,384.446 187.402 C 384.384 187.241,384.129 187.109,383.880 187.109 C 383.630 187.109,383.295 186.978,383.133 186.816 C 382.972 186.655,382.658 186.523,382.436 186.523 C 382.213 186.523,382.031 186.436,382.031 186.328 C 382.031 186.221,381.774 186.133,381.459 186.133 C 381.145 186.133,380.755 186.001,380.594 185.840 C 380.433 185.679,380.129 185.547,379.918 185.547 C 379.707 185.547,379.483 185.415,379.422 185.254 C 379.360 185.093,379.153 184.961,378.961 184.960 C 378.770 184.960,378.317 184.779,377.955 184.558 C 377.592 184.337,377.171 184.204,377.019 184.262 C 376.867 184.321,376.700 184.257,376.648 184.120 C 376.595 183.983,376.359 183.857,376.122 183.839 C 375.885 183.821,375.602 183.693,375.492 183.554 C 375.383 183.415,375.117 183.271,374.902 183.234 C 374.688 183.198,374.373 183.044,374.203 182.893 C 374.034 182.741,373.670 182.617,373.394 182.617 C 373.119 182.617,372.843 182.485,372.781 182.324 C 372.719 182.163,372.484 182.031,372.258 182.031 C 372.032 182.031,371.710 181.894,371.543 181.727 C 371.376 181.560,371.112 181.472,370.956 181.531 C 370.801 181.591,370.543 181.508,370.382 181.347 C 370.221 181.186,369.929 181.055,369.734 181.055 C 369.538 181.055,369.327 180.923,369.265 180.762 C 369.196 180.580,368.898 180.469,368.484 180.469 C 368.070 180.469,367.772 180.357,367.703 180.176 C 367.641 180.015,367.377 179.883,367.117 179.883 C 366.856 179.883,366.593 179.751,366.531 179.590 C 366.469 179.429,366.203 179.297,365.940 179.297 C 365.677 179.297,365.430 179.201,365.391 179.084 C 365.352 178.966,365.081 178.856,364.789 178.839 C 364.497 178.822,364.258 178.699,364.258 178.564 C 364.258 178.430,364.126 178.309,363.965 178.296 C 363.326 178.243,362.500 177.942,362.500 177.763 C 362.500 177.685,362.315 177.608,362.090 177.591 C 361.864 177.574,361.569 177.409,361.435 177.225 C 361.295 177.034,361.058 176.940,360.884 177.007 C 360.711 177.073,360.533 177.003,360.472 176.843 C 360.412 176.689,360.139 176.562,359.863 176.563 C 359.588 176.563,359.319 176.449,359.266 176.311 C 359.213 176.172,358.980 176.045,358.748 176.027 C 358.516 176.010,358.251 175.859,358.158 175.693 C 358.065 175.527,357.740 175.391,357.436 175.391 C 357.132 175.391,356.774 175.259,356.641 175.098 C 356.507 174.937,356.189 174.805,355.933 174.805 C 355.678 174.805,355.469 174.717,355.469 174.609 C 355.469 174.502,355.246 174.414,354.974 174.414 C 354.702 174.414,354.429 174.282,354.368 174.121 C 354.306 173.960,354.054 173.828,353.809 173.828 C 353.563 173.828,353.312 173.696,353.250 173.535 C 353.188 173.374,352.919 173.242,352.653 173.242 C 352.386 173.242,352.098 173.127,352.012 172.987 C 351.864 172.744,350.766 172.218,350.248 172.142 C 350.116 172.122,349.868 171.966,349.697 171.795 C 349.526 171.624,349.254 171.484,349.093 171.484 C 348.932 171.484,348.668 171.353,348.507 171.191 C 348.346 171.030,348.056 170.898,347.862 170.898 C 347.668 170.898,347.399 170.767,347.266 170.605 C 347.132 170.444,346.770 170.313,346.460 170.313 C 346.151 170.313,345.898 170.234,345.898 170.138 C 345.898 170.043,345.679 169.909,345.410 169.842 C 345.142 169.774,344.922 169.633,344.922 169.528 C 344.922 169.422,344.658 169.336,344.336 169.336 C 343.945 169.336,343.750 169.238,343.750 169.043 C 343.750 168.864,343.568 168.750,343.283 168.750 C 343.026 168.750,342.765 168.618,342.703 168.457 C 342.636 168.284,342.343 168.164,341.987 168.164 C 341.655 168.164,341.432 168.085,341.491 167.989 C 341.616 167.788,341.160 167.578,340.597 167.578 C 340.385 167.578,340.266 167.490,340.332 167.383 C 340.400 167.272,340.239 167.187,339.960 167.187 C 339.667 167.187,339.382 167.029,339.258 166.797 C 339.143 166.582,338.887 166.406,338.689 166.406 C 338.491 166.406,338.216 166.270,338.079 166.104 C 337.941 165.938,337.707 165.849,337.559 165.906 C 337.411 165.963,337.242 165.884,337.183 165.731 C 337.125 165.579,336.820 165.397,336.507 165.328 C 336.194 165.260,335.938 165.122,335.938 165.024 C 335.938 164.925,335.715 164.844,335.443 164.844 C 335.171 164.844,334.898 164.712,334.836 164.551 C 334.774 164.390,334.511 164.258,334.250 164.258 C 333.990 164.258,333.726 164.126,333.664 163.965 C 333.603 163.804,333.351 163.672,333.105 163.672 C 332.860 163.672,332.608 163.540,332.547 163.379 C 332.485 163.218,332.212 163.086,331.940 163.086 C 331.668 163.086,331.445 162.998,331.445 162.891 C 331.445 162.783,331.279 162.695,331.076 162.695 C 330.872 162.695,330.655 162.563,330.593 162.402 C 330.532 162.241,330.312 162.109,330.105 162.109 C 329.898 162.109,329.679 161.978,329.617 161.816 C 329.555 161.655,329.377 161.523,329.221 161.523 C 328.899 161.523,327.787 160.961,327.388 160.596 C 327.241 160.461,327.006 160.352,326.865 160.352 C 326.725 160.352,326.502 160.221,326.369 160.061 C 326.236 159.901,326.052 159.817,325.960 159.874 C 325.867 159.931,325.638 159.798,325.450 159.579 C 325.262 159.359,324.963 159.180,324.785 159.180 C 324.607 159.180,324.352 159.048,324.219 158.887 C 324.085 158.726,323.872 158.594,323.745 158.594 C 323.317 158.594,322.464 158.107,322.462 157.861 C 322.462 157.727,322.238 157.617,321.967 157.617 C 321.695 157.617,321.422 157.485,321.360 157.324 C 321.298 157.163,321.046 157.031,320.801 157.031 C 320.555 157.031,320.302 156.894,320.237 156.726 C 320.173 156.558,320.039 156.471,319.939 156.532 C 319.839 156.594,319.625 156.512,319.463 156.349 C 319.301 156.187,318.986 156.055,318.764 156.055 C 318.541 156.055,318.359 155.962,318.359 155.849 C 318.359 155.736,318.096 155.552,317.774 155.440 C 317.452 155.327,317.231 155.165,317.284 155.080 C 317.337 154.994,317.161 154.869,316.893 154.802 C 316.625 154.735,316.406 154.601,316.406 154.504 C 316.406 154.407,316.162 154.274,315.863 154.209 C 315.564 154.143,315.067 153.872,314.758 153.607 C 314.450 153.342,314.088 153.125,313.955 153.125 C 313.822 153.125,313.663 152.993,313.601 152.832 C 313.539 152.671,313.308 152.539,313.086 152.539 C 312.864 152.539,312.633 152.408,312.571 152.247 C 312.509 152.087,312.392 151.997,312.309 152.048 C 312.227 152.099,311.956 151.963,311.707 151.747 C 311.457 151.531,311.146 151.395,311.014 151.446 C 310.882 151.496,310.726 151.412,310.667 151.257 C 310.608 151.103,310.428 150.977,310.267 150.977 C 310.106 150.977,309.705 150.713,309.375 150.391 C 309.045 150.068,308.647 149.805,308.489 149.805 C 308.332 149.805,308.203 149.718,308.203 149.613 C 308.203 149.508,307.976 149.365,307.699 149.295 C 307.423 149.226,306.920 148.916,306.582 148.608 C 306.244 148.299,305.866 148.047,305.742 148.047 C 305.618 148.047,305.405 147.913,305.270 147.749 C 305.134 147.585,304.984 147.490,304.936 147.538 C 304.889 147.585,304.682 147.455,304.476 147.249 C 304.270 147.043,303.970 146.875,303.809 146.875 C 303.647 146.875,303.516 146.787,303.516 146.680 C 303.516 146.572,303.393 146.484,303.244 146.484 C 303.094 146.484,302.921 146.353,302.859 146.191 C 302.797 146.030,302.568 145.898,302.350 145.898 C 302.121 145.898,301.953 145.770,301.953 145.594 C 301.953 145.426,301.877 145.337,301.783 145.395 C 301.633 145.487,301.396 145.335,300.448 144.535 C 300.318 144.425,300.035 144.336,299.819 144.336 C 299.550 144.336,299.462 144.244,299.539 144.043 C 299.621 143.829,299.514 143.750,299.142 143.750 C 298.820 143.750,298.633 143.643,298.633 143.457 C 298.633 143.296,298.501 143.164,298.340 143.164 C 298.179 143.164,298.047 143.087,298.047 142.992 C 298.047 142.898,297.802 142.719,297.502 142.595 C 297.203 142.471,296.795 142.153,296.596 141.888 C 296.390 141.614,296.035 141.406,295.773 141.406 C 295.494 141.406,295.313 141.291,295.313 141.113 C 295.313 140.952,295.190 140.820,295.040 140.820 C 294.891 140.820,294.716 140.683,294.651 140.515 C 294.587 140.347,294.455 140.259,294.358 140.319 C 294.261 140.378,294.131 140.296,294.070 140.136 C 294.008 139.975,293.788 139.844,293.582 139.844 C 293.375 139.844,293.155 139.712,293.093 139.551 C 293.032 139.390,292.856 139.258,292.703 139.258 C 292.550 139.258,292.374 139.126,292.312 138.965 C 292.250 138.804,292.070 138.672,291.912 138.672 C 291.754 138.672,291.562 138.570,291.485 138.446 C 291.393 138.297,291.432 138.274,291.602 138.379 C 291.772 138.484,291.810 138.461,291.716 138.308 C 291.638 138.182,291.501 138.125,291.410 138.181 C 291.320 138.237,290.783 137.843,290.216 137.305 C 289.649 136.768,289.080 136.328,288.950 136.328 C 288.820 136.328,288.663 136.195,288.601 136.033 C 288.538 135.871,288.419 135.761,288.336 135.789 C 288.252 135.817,288.166 135.768,288.145 135.681 C 288.124 135.593,287.860 135.331,287.559 135.099 C 287.258 134.866,286.896 134.565,286.754 134.428 C 286.612 134.291,286.326 134.180,286.119 134.180 C 285.912 134.180,285.742 134.089,285.742 133.978 C 285.742 133.757,284.643 132.622,284.417 132.609 C 284.340 132.604,284.062 132.341,283.798 132.023 C 283.535 131.705,283.245 131.445,283.155 131.445 C 282.971 131.445,282.553 131.125,282.072 130.615 C 281.894 130.427,281.632 130.273,281.488 130.273 C 281.344 130.273,281.277 130.192,281.339 130.092 C 281.401 129.992,281.274 129.855,281.058 129.786 C 280.841 129.717,280.664 129.572,280.664 129.464 C 280.664 129.200,279.578 128.125,279.312 128.125 C 279.196 128.125,279.102 127.993,279.102 127.832 C 279.102 127.671,278.970 127.539,278.809 127.539 C 278.647 127.539,278.516 127.450,278.516 127.341 C 278.516 127.077,277.309 125.990,277.008 125.982 C 276.877 125.979,276.821 125.845,276.882 125.684 C 276.961 125.480,276.869 125.391,276.583 125.391 C 276.357 125.391,276.194 125.319,276.221 125.231 C 276.286 125.017,275.065 123.633,274.811 123.633 C 274.700 123.633,274.609 123.501,274.609 123.340 C 274.609 123.179,274.478 123.047,274.316 123.047 C 274.155 123.047,274.023 122.962,274.023 122.858 C 274.023 122.603,272.916 121.484,272.663 121.484 C 272.552 121.484,272.461 121.353,272.461 121.191 C 272.461 121.030,272.329 120.898,272.168 120.898 C 272.007 120.898,271.875 120.806,271.875 120.692 C 271.875 120.579,271.627 120.249,271.324 119.960 C 271.021 119.670,270.442 118.972,270.037 118.407 C 269.633 117.843,269.221 117.431,269.123 117.491 C 269.025 117.552,268.945 117.464,268.945 117.297 C 268.945 117.129,268.857 116.992,268.750 116.992 C 268.643 116.992,268.555 116.860,268.555 116.699 C 268.555 116.538,268.423 116.406,268.262 116.406 C 268.101 116.406,267.969 116.274,267.969 116.113 C 267.969 115.952,267.837 115.820,267.676 115.820 C 267.493 115.820,267.383 115.636,267.383 115.332 C 267.383 115.063,267.295 114.844,267.188 114.844 C 266.876 114.844,266.185 114.067,266.313 113.860 C 266.377 113.757,266.327 113.672,266.202 113.672 C 265.937 113.672,265.113 112.679,265.187 112.450 C 265.215 112.364,265.105 112.243,264.943 112.181 C 264.781 112.118,264.647 111.967,264.645 111.844 C 264.640 111.560,263.285 109.997,263.269 110.256 C 263.262 110.362,263.160 110.229,263.043 109.961 C 262.926 109.692,262.846 109.400,262.865 109.312 C 262.884 109.223,262.820 109.200,262.722 109.261 C 262.536 109.376,261.794 108.412,261.871 108.154 C 261.895 108.074,261.782 108.008,261.621 108.008 C 261.339 108.008,261.247 107.789,261.314 107.275 C 261.331 107.141,261.210 107.031,261.044 107.031 C 260.878 107.031,260.742 106.950,260.742 106.850 C 260.742 106.750,260.632 106.552,260.498 106.410 C 260.363 106.268,260.082 105.828,259.874 105.432 C 259.665 105.036,259.424 104.755,259.337 104.809 C 259.193 104.898,259.100 104.608,259.157 104.248 C 259.169 104.167,259.048 104.102,258.887 104.102 C 258.726 104.102,258.594 103.929,258.594 103.718 C 258.594 103.507,258.416 103.239,258.198 103.122 C 257.980 103.005,257.853 102.827,257.916 102.725 C 257.979 102.623,257.946 102.539,257.843 102.539 C 257.739 102.539,257.423 102.144,257.139 101.660 C 256.856 101.177,256.540 100.781,256.437 100.781 C 256.334 100.781,256.250 100.603,256.250 100.384 C 256.250 100.166,256.118 99.937,255.957 99.875 C 255.796 99.813,255.664 99.597,255.664 99.393 C 255.664 99.190,255.580 99.023,255.478 99.023 C 255.376 99.023,255.142 98.708,254.959 98.322 C 254.776 97.936,254.508 97.575,254.364 97.520 C 254.220 97.464,254.102 97.250,254.102 97.043 C 254.102 96.837,253.970 96.617,253.809 96.555 C 253.647 96.493,253.516 96.330,253.516 96.191 C 253.516 96.053,253.384 95.890,253.223 95.828 C 253.062 95.766,252.930 95.534,252.930 95.313 C 252.930 95.091,252.798 94.859,252.638 94.798 C 252.477 94.736,252.388 94.617,252.440 94.533 C 252.492 94.449,252.413 94.279,252.263 94.155 C 252.114 94.031,251.937 93.713,251.871 93.449 C 251.805 93.185,251.615 92.969,251.450 92.969 C 251.284 92.969,251.201 92.884,251.265 92.781 C 251.329 92.677,251.202 92.413,250.984 92.195 C 250.765 91.976,250.586 91.709,250.586 91.602 C 250.586 91.494,250.504 91.406,250.404 91.406 C 250.303 91.406,250.193 91.165,250.159 90.869 C 250.125 90.567,249.991 90.353,249.854 90.381 C 249.719 90.408,249.609 90.263,249.609 90.060 C 249.609 89.857,249.478 89.640,249.316 89.578 C 249.155 89.516,249.023 89.291,249.023 89.078 C 249.023 88.865,248.887 88.615,248.721 88.522 C 248.555 88.429,248.404 88.163,248.387 87.931 C 248.369 87.700,248.236 87.465,248.091 87.409 C 247.946 87.353,247.876 87.228,247.936 87.131 C 247.996 87.034,247.913 86.905,247.753 86.843 C 247.592 86.781,247.461 86.509,247.461 86.237 C 247.461 85.927,247.351 85.742,247.168 85.742 C 247.007 85.742,246.875 85.577,246.875 85.375 C 246.875 85.174,246.757 84.911,246.612 84.791 C 246.468 84.671,246.191 84.220,245.997 83.790 C 245.803 83.360,245.576 83.008,245.494 83.008 C 245.411 83.008,245.286 82.746,245.216 82.427 C 245.146 82.107,244.985 81.865,244.859 81.890 C 244.732 81.914,244.601 81.687,244.566 81.385 C 244.531 81.083,244.378 80.788,244.224 80.729 C 244.071 80.670,243.945 80.467,243.945 80.276 C 243.945 80.086,243.814 79.822,243.654 79.689 C 243.495 79.557,243.412 79.370,243.471 79.275 C 243.530 79.179,243.441 79.102,243.273 79.102 C 243.010 79.102,242.859 78.627,242.946 78.076 C 242.958 77.996,242.861 77.952,242.729 77.979 C 242.598 78.005,242.457 77.808,242.417 77.539 C 242.378 77.271,242.222 76.980,242.071 76.895 C 241.920 76.809,241.797 76.564,241.797 76.351 C 241.797 76.138,241.666 75.914,241.505 75.852 C 241.345 75.791,241.250 75.680,241.296 75.606 C 241.407 75.427,240.816 74.213,240.392 73.750 C 240.206 73.545,240.093 73.313,240.142 73.233 C 240.192 73.153,240.101 73.037,239.940 72.976 C 239.780 72.914,239.648 72.683,239.648 72.461 C 239.648 72.239,239.517 72.007,239.355 71.946 C 239.194 71.884,239.063 71.673,239.063 71.477 C 239.063 71.282,238.931 70.990,238.771 70.830 C 238.610 70.669,238.444 70.333,238.402 70.083 C 238.360 69.833,238.228 69.651,238.108 69.678 C 237.925 69.719,237.837 69.340,237.908 68.816 C 237.918 68.745,237.786 68.609,237.615 68.514 C 237.444 68.418,237.305 68.174,237.305 67.971 C 237.305 67.767,237.222 67.550,237.122 67.488 C 236.848 67.319,236.328 66.203,236.328 65.784 C 236.328 65.582,236.196 65.367,236.035 65.305 C 235.874 65.243,235.742 64.992,235.742 64.746 C 235.742 64.501,235.610 64.249,235.449 64.187 C 235.288 64.125,235.156 63.850,235.156 63.574 C 235.156 63.299,235.024 63.023,234.863 62.961 C 234.702 62.899,234.570 62.687,234.570 62.489 C 234.570 62.291,234.460 62.058,234.326 61.973 C 234.192 61.887,234.079 61.729,234.075 61.621 C 234.061 61.281,233.311 59.870,233.057 59.707 C 232.922 59.621,232.813 59.345,232.813 59.093 C 232.813 58.841,232.681 58.585,232.520 58.523 C 232.358 58.461,232.227 58.188,232.227 57.916 C 232.227 57.644,232.139 57.422,232.031 57.422 C 231.924 57.422,231.836 57.252,231.836 57.045 C 231.836 56.838,231.704 56.537,231.543 56.376 C 231.382 56.214,231.250 55.932,231.250 55.748 C 231.250 55.565,231.114 55.315,230.948 55.194 C 230.782 55.072,230.632 54.777,230.614 54.537 C 230.596 54.298,230.468 54.102,230.330 54.102 C 230.182 54.102,230.078 53.867,230.078 53.537 C 230.078 53.217,229.952 52.923,229.788 52.860 C 229.629 52.799,229.546 52.625,229.604 52.474 C 229.662 52.323,229.573 52.062,229.406 51.895 C 229.238 51.727,229.102 51.406,229.102 51.180 C 229.102 50.954,228.970 50.718,228.809 50.657 C 228.647 50.595,228.516 50.334,228.516 50.077 C 228.516 49.792,228.401 49.609,228.223 49.609 C 228.062 49.609,227.930 49.461,227.930 49.280 C 227.930 48.833,227.157 47.266,226.936 47.266 C 226.838 47.266,226.758 47.013,226.758 46.704 C 226.758 46.394,226.626 46.032,226.465 45.898 C 226.304 45.765,226.172 45.444,226.172 45.185 C 226.172 44.926,226.040 44.664,225.879 44.602 C 225.712 44.538,225.586 44.247,225.586 43.924 C 225.586 43.536,225.488 43.359,225.272 43.359 C 225.062 43.359,224.999 43.254,225.080 43.042 C 225.149 42.861,225.074 42.629,224.906 42.504 C 224.743 42.384,224.591 42.043,224.567 41.748 C 224.544 41.453,224.412 41.211,224.274 41.211 C 224.126 41.211,224.023 40.971,224.023 40.625 C 224.023 40.234,223.926 40.039,223.730 40.039 C 223.548 40.039,223.438 39.854,223.438 39.548 C 223.438 39.278,223.353 38.905,223.250 38.718 C 223.146 38.532,222.843 37.882,222.577 37.274 C 222.310 36.667,222.003 36.114,221.895 36.047 C 221.786 35.980,221.743 35.805,221.799 35.658 C 221.856 35.511,221.819 35.340,221.718 35.278 C 221.548 35.173,220.959 34.031,220.254 32.439 C 220.091 32.073,220.009 31.641,220.071 31.479 C 220.141 31.297,220.102 31.236,219.969 31.319 C 219.703 31.483,219.542 31.241,219.489 30.598 C 219.467 30.327,219.357 30.122,219.246 30.141 C 219.134 30.160,219.015 29.890,218.982 29.541 C 218.944 29.148,218.814 28.906,218.640 28.906 C 218.450 28.906,218.359 28.688,218.359 28.234 C 218.359 27.865,218.271 27.508,218.164 27.441 C 218.057 27.375,217.969 27.156,217.969 26.956 C 217.969 26.755,217.845 26.467,217.694 26.315 C 217.542 26.164,217.386 25.828,217.347 25.569 C 217.308 25.310,217.168 25.120,217.036 25.146 C 216.890 25.176,216.797 24.968,216.797 24.609 C 216.797 24.219,216.699 24.023,216.504 24.023 C 216.299 24.023,216.211 23.817,216.211 23.334 C 216.211 22.914,216.101 22.602,215.930 22.536 C 215.776 22.477,215.687 22.326,215.733 22.201 C 215.779 22.075,215.688 21.753,215.531 21.484 C 215.375 21.216,215.147 20.754,215.026 20.459 C 214.905 20.164,214.726 19.971,214.629 20.031 C 214.532 20.091,214.453 19.793,214.453 19.368 C 214.453 18.862,214.352 18.558,214.160 18.484 C 213.999 18.422,213.867 18.211,213.867 18.014 C 213.867 17.817,213.785 17.573,213.684 17.471 C 213.583 17.369,213.453 17.022,213.395 16.701 C 213.337 16.379,213.200 16.086,213.090 16.050 C 212.980 16.013,212.891 15.814,212.891 15.608 C 212.891 15.402,212.718 14.912,212.508 14.519 C 212.297 14.126,212.165 13.740,212.214 13.661 C 212.263 13.582,212.171 13.467,212.011 13.406 C 211.850 13.344,211.719 13.071,211.719 12.799 C 211.719 12.527,211.631 12.305,211.523 12.305 C 211.416 12.305,211.328 12.102,211.328 11.854 C 211.328 11.606,211.199 11.232,211.041 11.024 C 210.884 10.815,210.752 10.453,210.748 10.219 C 210.745 9.985,210.610 9.662,210.449 9.501 C 210.288 9.339,210.156 9.069,210.156 8.901 C 210.156 8.732,209.977 8.415,209.759 8.196 C 209.540 7.977,209.415 7.710,209.482 7.601 C 209.549 7.493,209.465 7.192,209.294 6.932 C 209.124 6.672,208.984 6.335,208.984 6.183 C 208.984 6.031,208.853 5.798,208.691 5.664 C 208.530 5.530,208.398 5.218,208.398 4.971 C 208.398 4.723,208.267 4.388,208.105 4.227 C 207.944 4.066,207.813 3.705,207.813 3.426 C 207.813 3.146,207.681 2.867,207.520 2.805 C 207.358 2.743,207.227 2.480,207.227 2.219 C 207.227 1.959,207.108 1.700,206.963 1.644 C 206.801 1.582,206.734 1.357,206.790 1.064 C 206.842 0.794,206.789 0.586,206.670 0.586 C 206.553 0.586,206.508 0.454,206.570 0.293 C 206.669 0.036,205.884 0.000,200.216 0.000 L 193.750 0.000 193.750 0.586 " stroke="none" fill="#ff4500" fill-rule="evenodd"></path></g></svg><style>@media (prefers-color-scheme: light) { :root { filter: none; } }
@media (prefers-color-scheme: dark) { :root { filter: none; } }
</style></svg>